<svg xmlns="http://www.w3.org/2000/svg" width="25.812" height="17.423" viewBox="0 0 25.812 17.423"><path d="M.072,19.948V5.611q0-.025.075-.473l8.438,7.218L.172,20.446a2.11,2.11,0,0,1-.1-.5ZM1.192,4.143a1.073,1.073,0,0,1,.423-.075H24.341a1.409,1.409,0,0,1,.448.075l-8.463,7.243-1.12.9L12.99,14.1l-2.215-1.817-1.12-.9Zm.025,17.274L9.7,13.278l3.286,2.663,3.286-2.663,8.488,8.139a1.2,1.2,0,0,1-.423.075H1.615a1.127,1.127,0,0,1-.4-.075ZM17.4,12.357l8.413-7.218a1.486,1.486,0,0,1,.075.473V19.948a1.908,1.908,0,0,1-.075.5Z" transform="translate(-0.072 -4.068)" fill="#fff"/></svg>