<svg width="631" height="427" viewBox="0 0 631 427" fill="none" xmlns="http://www.w3.org/2000/svg">
<g opacity="0.5">
<path opacity="0.5" d="M305.29 47.5112L484.952 177.238L417.07 388.163L195.455 388.794L126.371 178.26L305.29 47.5112Z" fill="white"/>
<path opacity="0.5" d="M126.371 178.26L305.29 212.974M305.29 47.5112L484.952 177.238L305.29 47.5112ZM305.29 47.5112L126.371 178.26L305.29 47.5112ZM305.29 47.5112V212.974V47.5112ZM484.952 177.238L417.07 388.163L484.952 177.238ZM484.952 177.238L305.29 212.974L484.952 177.238ZM417.07 388.163L195.455 388.794L417.07 388.163ZM417.07 388.163L305.29 212.974L417.07 388.163ZM195.455 388.794L126.371 178.26L195.455 388.794ZM195.455 388.794L305.29 212.974L195.455 388.794Z" stroke="#C3C3C3" stroke-width="3"/>
</g>
<path d="M306 80.5L175.5 187.5L208 370.5L384.5 337L433 187.5L306 80.5Z" fill="#8C80F8" fill-opacity="0.2" stroke="#8C80F8" stroke-width="3"/>
<path d="M230.42 21.0001C230.273 21.0001 230.149 20.9561 230.046 20.8681C229.958 20.7654 229.914 20.6408 229.914 20.4941V6.1281C229.914 5.96677 229.958 5.8421 230.046 5.7541C230.149 5.65143 230.273 5.6001 230.42 5.6001H236.008C237.665 5.6001 238.971 6.00343 239.924 6.8101C240.877 7.61677 241.354 8.78277 241.354 10.3081C241.354 11.8334 240.877 12.9994 239.924 13.8061C238.985 14.5981 237.68 14.9941 236.008 14.9941H232.114V20.4941C232.114 20.6408 232.063 20.7654 231.96 20.8681C231.857 20.9561 231.733 21.0001 231.586 21.0001H230.42ZM235.898 13.1461C236.969 13.1461 237.775 12.9041 238.318 12.4201C238.875 11.9361 239.154 11.2321 239.154 10.3081C239.154 9.3841 238.883 8.6801 238.34 8.1961C237.797 7.69743 236.983 7.4481 235.898 7.4481H232.092V13.1461H235.898ZM244.249 21.0001C244.103 21.0001 243.978 20.9561 243.875 20.8681C243.787 20.7654 243.743 20.6408 243.743 20.4941V10.0881C243.743 9.94143 243.787 9.81677 243.875 9.7141C243.978 9.61143 244.103 9.5601 244.249 9.5601H245.261C245.408 9.5601 245.533 9.61143 245.635 9.7141C245.738 9.81677 245.789 9.94143 245.789 10.0881V11.0561C246.391 10.0588 247.417 9.5601 248.869 9.5601H249.727C249.874 9.5601 249.991 9.61143 250.079 9.7141C250.182 9.8021 250.233 9.91943 250.233 10.0661V10.9681C250.233 11.1148 250.182 11.2321 250.079 11.3201C249.991 11.4081 249.874 11.4521 249.727 11.4521H248.407C247.615 11.4521 246.992 11.6868 246.537 12.1561C246.083 12.6108 245.855 13.2341 245.855 14.0261V20.4941C245.855 20.6408 245.804 20.7654 245.701 20.8681C245.599 20.9561 245.474 21.0001 245.327 21.0001H244.249ZM256.572 21.2201C254.958 21.2201 253.704 20.7654 252.81 19.8561C251.93 18.9468 251.46 17.7368 251.402 16.2261L251.38 15.2801L251.402 14.3341C251.46 12.8381 251.937 11.6354 252.832 10.7261C253.726 9.8021 254.973 9.3401 256.572 9.3401C258.17 9.3401 259.417 9.8021 260.312 10.7261C261.206 11.6354 261.683 12.8381 261.742 14.3341C261.756 14.4954 261.764 14.8108 261.764 15.2801C261.764 15.7494 261.756 16.0648 261.742 16.2261C261.683 17.7368 261.206 18.9468 260.312 19.8561C259.432 20.7654 258.185 21.2201 256.572 21.2201ZM256.572 19.5261C257.496 19.5261 258.222 19.2328 258.75 18.6461C259.292 18.0594 259.586 17.2161 259.63 16.1161C259.644 15.9694 259.652 15.6908 259.652 15.2801C259.652 14.8694 259.644 14.5908 259.63 14.4441C259.586 13.3441 259.292 12.5008 258.75 11.9141C258.222 11.3274 257.496 11.0341 256.572 11.0341C255.648 11.0341 254.914 11.3274 254.372 11.9141C253.829 12.5008 253.543 13.3441 253.514 14.4441L253.492 15.2801L253.514 16.1161C253.543 17.2161 253.829 18.0594 254.372 18.6461C254.914 19.2328 255.648 19.5261 256.572 19.5261ZM265.069 7.4261C264.922 7.4261 264.797 7.3821 264.695 7.2941C264.607 7.19143 264.563 7.06677 264.563 6.9201V5.7321C264.563 5.58543 264.607 5.46077 264.695 5.3581C264.797 5.25543 264.922 5.2041 265.069 5.2041H266.477C266.623 5.2041 266.748 5.25543 266.851 5.3581C266.953 5.46077 267.005 5.58543 267.005 5.7321V6.9201C267.005 7.06677 266.953 7.19143 266.851 7.2941C266.748 7.3821 266.623 7.4261 266.477 7.4261H265.069ZM262.649 25.1801C262.502 25.1801 262.385 25.1288 262.297 25.0261C262.194 24.9381 262.143 24.8208 262.143 24.6741V23.9261C262.143 23.7794 262.194 23.6548 262.297 23.5521C262.385 23.4641 262.502 23.4201 262.649 23.4201H262.957C263.675 23.4201 264.152 23.2368 264.387 22.8701C264.621 22.5034 264.739 21.9608 264.739 21.2421V10.0661C264.739 9.91943 264.783 9.8021 264.871 9.7141C264.973 9.61143 265.098 9.5601 265.245 9.5601H266.323C266.469 9.5601 266.587 9.61143 266.675 9.7141C266.777 9.8021 266.829 9.91943 266.829 10.0661V21.2641C266.829 23.8748 265.575 25.1801 263.067 25.1801H262.649ZM274.681 21.2201C273.17 21.2201 271.96 20.7581 271.051 19.8341C270.156 18.8954 269.665 17.6194 269.577 16.0061L269.555 15.2581L269.577 14.5321C269.679 12.9481 270.178 11.6868 271.073 10.7481C271.982 9.80943 273.177 9.3401 274.659 9.3401C276.287 9.3401 277.548 9.86077 278.443 10.9021C279.337 11.9288 279.785 13.3221 279.785 15.0821V15.4561C279.785 15.6028 279.733 15.7274 279.631 15.8301C279.543 15.9181 279.425 15.9621 279.279 15.9621H271.667V16.1601C271.711 17.1134 271.997 17.9274 272.525 18.6021C273.067 19.2621 273.779 19.5921 274.659 19.5921C275.333 19.5921 275.883 19.4601 276.309 19.1961C276.749 18.9174 277.071 18.6314 277.277 18.3381C277.409 18.1621 277.504 18.0594 277.563 18.0301C277.636 17.9861 277.761 17.9641 277.937 17.9641H279.015C279.147 17.9641 279.257 18.0008 279.345 18.0741C279.433 18.1474 279.477 18.2501 279.477 18.3821C279.477 18.7048 279.271 19.0934 278.861 19.5481C278.465 20.0028 277.9 20.3988 277.167 20.7361C276.448 21.0588 275.619 21.2201 274.681 21.2201ZM277.695 14.4441V14.3781C277.695 13.3661 277.416 12.5448 276.859 11.9141C276.316 11.2688 275.583 10.9461 274.659 10.9461C273.735 10.9461 273.001 11.2688 272.459 11.9141C271.931 12.5448 271.667 13.3661 271.667 14.3781V14.4441H277.695ZM287.035 21.2201C285.466 21.2201 284.234 20.7801 283.339 19.9001C282.459 19.0054 281.99 17.7588 281.931 16.1601L281.909 15.2801L281.931 14.4001C281.99 12.8014 282.459 11.5621 283.339 10.6821C284.234 9.78743 285.466 9.3401 287.035 9.3401C288.091 9.3401 288.986 9.53077 289.719 9.9121C290.452 10.2934 290.995 10.7628 291.347 11.3201C291.714 11.8774 291.912 12.4348 291.941 12.9921C291.956 13.1388 291.912 13.2561 291.809 13.3441C291.706 13.4321 291.582 13.4761 291.435 13.4761H290.379C290.232 13.4761 290.122 13.4468 290.049 13.3881C289.976 13.3294 289.902 13.2121 289.829 13.0361C289.58 12.3321 289.228 11.8334 288.773 11.5401C288.318 11.2321 287.746 11.0781 287.057 11.0781C286.148 11.0781 285.422 11.3641 284.879 11.9361C284.351 12.4934 284.065 13.3514 284.021 14.5101L283.999 15.3021L284.021 16.0501C284.065 17.2234 284.351 18.0888 284.879 18.6461C285.407 19.2034 286.133 19.4821 287.057 19.4821C287.746 19.4821 288.318 19.3354 288.773 19.0421C289.228 18.7341 289.58 18.2281 289.829 17.5241C289.902 17.3481 289.976 17.2308 290.049 17.1721C290.122 17.0988 290.232 17.0621 290.379 17.0621H291.435C291.582 17.0621 291.706 17.1134 291.809 17.2161C291.912 17.3041 291.956 17.4214 291.941 17.5681C291.912 18.1108 291.714 18.6681 291.347 19.2401C290.995 19.7974 290.452 20.2668 289.719 20.6481C289 21.0294 288.106 21.2201 287.035 21.2201ZM299.02 21.0001C296.702 21.0001 295.544 19.7094 295.544 17.1281V11.3201H293.828C293.681 11.3201 293.556 11.2761 293.454 11.1881C293.366 11.0854 293.322 10.9608 293.322 10.8141V10.0661C293.322 9.91943 293.366 9.8021 293.454 9.7141C293.556 9.61143 293.681 9.5601 293.828 9.5601H295.544V5.8861C295.544 5.73943 295.588 5.6221 295.676 5.5341C295.778 5.43143 295.903 5.3801 296.05 5.3801H297.084C297.23 5.3801 297.348 5.43143 297.436 5.5341C297.538 5.6221 297.59 5.73943 297.59 5.8861V9.5601H300.318C300.464 9.5601 300.582 9.61143 300.67 9.7141C300.772 9.8021 300.824 9.91943 300.824 10.0661V10.8141C300.824 10.9608 300.772 11.0854 300.67 11.1881C300.582 11.2761 300.464 11.3201 300.318 11.3201H297.59V16.9741C297.59 17.7074 297.714 18.2648 297.964 18.6461C298.213 19.0128 298.624 19.1961 299.196 19.1961H300.538C300.684 19.1961 300.802 19.2474 300.89 19.3501C300.992 19.4381 301.044 19.5554 301.044 19.7021V20.4941C301.044 20.6408 300.992 20.7654 300.89 20.8681C300.802 20.9561 300.684 21.0001 300.538 21.0001H299.02ZM309.332 21.0001C309.185 21.0001 309.061 20.9561 308.958 20.8681C308.87 20.7654 308.826 20.6408 308.826 20.4941V6.1061C308.826 5.95943 308.87 5.8421 308.958 5.7541C309.061 5.65143 309.185 5.6001 309.332 5.6001H310.498C310.645 5.6001 310.762 5.65143 310.85 5.7541C310.953 5.8421 311.004 5.95943 311.004 6.1061V20.4941C311.004 20.6408 310.953 20.7654 310.85 20.8681C310.762 20.9561 310.645 21.0001 310.498 21.0001H309.332ZM315.062 21.0001C314.915 21.0001 314.79 20.9561 314.688 20.8681C314.6 20.7654 314.556 20.6408 314.556 20.4941V10.0661C314.556 9.91943 314.6 9.8021 314.688 9.7141C314.79 9.61143 314.915 9.5601 315.062 9.5601H316.052C316.198 9.5601 316.316 9.61143 316.404 9.7141C316.506 9.8021 316.558 9.91943 316.558 10.0661V10.8361C317.32 9.83877 318.384 9.3401 319.748 9.3401C321.376 9.3401 322.527 10.0148 323.202 11.3641C323.554 10.7481 324.052 10.2568 324.698 9.8901C325.343 9.52343 326.069 9.3401 326.876 9.3401C328.078 9.3401 329.061 9.75077 329.824 10.5721C330.586 11.3934 330.968 12.5814 330.968 14.1361V20.4941C330.968 20.6408 330.916 20.7654 330.814 20.8681C330.726 20.9561 330.608 21.0001 330.462 21.0001H329.428C329.281 21.0001 329.156 20.9561 329.054 20.8681C328.966 20.7654 328.922 20.6408 328.922 20.4941V14.3341C328.922 13.1901 328.68 12.3688 328.196 11.8701C327.726 11.3714 327.103 11.1221 326.326 11.1221C325.636 11.1221 325.042 11.3788 324.544 11.8921C324.045 12.3908 323.796 13.2048 323.796 14.3341V20.4941C323.796 20.6408 323.744 20.7654 323.642 20.8681C323.554 20.9561 323.436 21.0001 323.29 21.0001H322.256C322.109 21.0001 321.984 20.9561 321.882 20.8681C321.794 20.7654 321.75 20.6408 321.75 20.4941V14.3341C321.75 13.1901 321.5 12.3688 321.002 11.8701C320.518 11.3714 319.902 11.1221 319.154 11.1221C318.464 11.1221 317.87 11.3788 317.372 11.8921C316.873 12.3908 316.624 13.1974 316.624 14.3121V20.4941C316.624 20.6408 316.572 20.7654 316.47 20.8681C316.382 20.9561 316.264 21.0001 316.118 21.0001H315.062ZM334.635 25.1801C334.488 25.1801 334.363 25.1288 334.261 25.0261C334.173 24.9381 334.129 24.8208 334.129 24.6741V10.0661C334.129 9.91943 334.173 9.8021 334.261 9.7141C334.363 9.61143 334.488 9.5601 334.635 9.5601H335.647C335.793 9.5601 335.911 9.61143 335.999 9.7141C336.101 9.8021 336.153 9.91943 336.153 10.0661V11.0341C336.974 9.90477 338.177 9.3401 339.761 9.3401C341.301 9.3401 342.452 9.8241 343.215 10.7921C343.992 11.7601 344.41 13.0068 344.469 14.5321C344.483 14.6934 344.491 14.9428 344.491 15.2801C344.491 15.6174 344.483 15.8668 344.469 16.0281C344.41 17.5388 343.992 18.7854 343.215 19.7681C342.437 20.7361 341.286 21.2201 339.761 21.2201C338.235 21.2201 337.047 20.6701 336.197 19.5701V24.6741C336.197 24.8208 336.153 24.9381 336.065 25.0261C335.977 25.1288 335.859 25.1801 335.713 25.1801H334.635ZM339.299 19.4381C340.34 19.4381 341.095 19.1154 341.565 18.4701C342.049 17.8248 342.313 16.9741 342.357 15.9181C342.371 15.7714 342.379 15.5588 342.379 15.2801C342.379 12.5081 341.352 11.1221 339.299 11.1221C338.287 11.1221 337.524 11.4594 337.011 12.1341C336.512 12.7941 336.241 13.5861 336.197 14.5101L336.175 15.3461L336.197 16.2041C336.226 17.0694 336.505 17.8248 337.033 18.4701C337.561 19.1154 338.316 19.4381 339.299 19.4381ZM350.402 21.2201C349.683 21.2201 349.016 21.0734 348.4 20.7801C347.784 20.4868 347.293 20.0908 346.926 19.5921C346.574 19.0788 346.398 18.5141 346.398 17.8981C346.398 16.9301 346.794 16.1381 347.586 15.5221C348.393 14.8914 349.478 14.4808 350.842 14.2901L354.12 13.8281V13.1901C354.12 11.6941 353.262 10.9461 351.546 10.9461C350.901 10.9461 350.373 11.0854 349.962 11.3641C349.551 11.6281 349.243 11.9434 349.038 12.3101C348.994 12.4421 348.935 12.5374 348.862 12.5961C348.803 12.6548 348.715 12.6841 348.598 12.6841H347.652C347.52 12.6841 347.403 12.6401 347.3 12.5521C347.212 12.4494 347.168 12.3321 347.168 12.2001C347.183 11.8481 347.344 11.4521 347.652 11.0121C347.975 10.5574 348.466 10.1688 349.126 9.8461C349.786 9.50877 350.6 9.3401 351.568 9.3401C353.211 9.3401 354.391 9.72877 355.11 10.5061C355.829 11.2688 356.188 12.2221 356.188 13.3661V20.4941C356.188 20.6408 356.137 20.7654 356.034 20.8681C355.946 20.9561 355.829 21.0001 355.682 21.0001H354.67C354.523 21.0001 354.399 20.9561 354.296 20.8681C354.208 20.7654 354.164 20.6408 354.164 20.4941V19.5481C353.841 20.0174 353.372 20.4134 352.756 20.7361C352.14 21.0588 351.355 21.2201 350.402 21.2201ZM350.864 19.5701C351.817 19.5701 352.595 19.2621 353.196 18.6461C353.812 18.0154 354.12 17.1134 354.12 15.9401V15.3241L351.568 15.6981C350.527 15.8448 349.742 16.0941 349.214 16.4461C348.686 16.7834 348.422 17.2161 348.422 17.7441C348.422 18.3308 348.664 18.7854 349.148 19.1081C349.632 19.4161 350.204 19.5701 350.864 19.5701ZM363.971 21.2201C362.401 21.2201 361.169 20.7801 360.275 19.9001C359.395 19.0054 358.925 17.7588 358.867 16.1601L358.845 15.2801L358.867 14.4001C358.925 12.8014 359.395 11.5621 360.275 10.6821C361.169 9.78743 362.401 9.3401 363.971 9.3401C365.027 9.3401 365.921 9.53077 366.655 9.9121C367.388 10.2934 367.931 10.7628 368.283 11.3201C368.649 11.8774 368.847 12.4348 368.877 12.9921C368.891 13.1388 368.847 13.2561 368.745 13.3441C368.642 13.4321 368.517 13.4761 368.371 13.4761H367.315C367.168 13.4761 367.058 13.4468 366.985 13.3881C366.911 13.3294 366.838 13.2121 366.765 13.0361C366.515 12.3321 366.163 11.8334 365.709 11.5401C365.254 11.2321 364.682 11.0781 363.993 11.0781C363.083 11.0781 362.357 11.3641 361.815 11.9361C361.287 12.4934 361.001 13.3514 360.957 14.5101L360.935 15.3021L360.957 16.0501C361.001 17.2234 361.287 18.0888 361.815 18.6461C362.343 19.2034 363.069 19.4821 363.993 19.4821C364.682 19.4821 365.254 19.3354 365.709 19.0421C366.163 18.7341 366.515 18.2281 366.765 17.5241C366.838 17.3481 366.911 17.2308 366.985 17.1721C367.058 17.0988 367.168 17.0621 367.315 17.0621H368.371C368.517 17.0621 368.642 17.1134 368.745 17.2161C368.847 17.3041 368.891 17.4214 368.877 17.5681C368.847 18.1108 368.649 18.6681 368.283 19.2401C367.931 19.7974 367.388 20.2668 366.655 20.6481C365.936 21.0294 365.041 21.2201 363.971 21.2201ZM375.955 21.0001C373.638 21.0001 372.479 19.7094 372.479 17.1281V11.3201H370.763C370.617 11.3201 370.492 11.2761 370.389 11.1881C370.301 11.0854 370.257 10.9608 370.257 10.8141V10.0661C370.257 9.91943 370.301 9.8021 370.389 9.7141C370.492 9.61143 370.617 9.5601 370.763 9.5601H372.479V5.8861C372.479 5.73943 372.523 5.6221 372.611 5.5341C372.714 5.43143 372.839 5.3801 372.985 5.3801H374.019C374.166 5.3801 374.283 5.43143 374.371 5.5341C374.474 5.6221 374.525 5.73943 374.525 5.8861V9.5601H377.253C377.4 9.5601 377.517 9.61143 377.605 9.7141C377.708 9.8021 377.759 9.91943 377.759 10.0661V10.8141C377.759 10.9608 377.708 11.0854 377.605 11.1881C377.517 11.2761 377.4 11.3201 377.253 11.3201H374.525V16.9741C374.525 17.7074 374.65 18.2648 374.899 18.6461C375.149 19.0128 375.559 19.1961 376.131 19.1961H377.473C377.62 19.1961 377.737 19.2474 377.825 19.3501C377.928 19.4381 377.979 19.5554 377.979 19.7021V20.4941C377.979 20.6408 377.928 20.7654 377.825 20.8681C377.737 20.9561 377.62 21.0001 377.473 21.0001H375.955Z" fill="#373935"/>
<path d="M509.42 169C509.273 169 509.149 168.956 509.046 168.868C508.958 168.765 508.914 168.641 508.914 168.494V154.128C508.914 153.967 508.958 153.842 509.046 153.754C509.149 153.651 509.273 153.6 509.42 153.6H518.506C518.653 153.6 518.77 153.651 518.858 153.754C518.961 153.842 519.012 153.967 519.012 154.128V154.964C519.012 155.111 518.968 155.235 518.88 155.338C518.792 155.426 518.667 155.47 518.506 155.47H511.026V160.288H518.022C518.169 160.288 518.286 160.339 518.374 160.442C518.477 160.53 518.528 160.655 518.528 160.816V161.63C518.528 161.777 518.477 161.901 518.374 162.004C518.286 162.092 518.169 162.136 518.022 162.136H511.026V167.13H518.682C518.843 167.13 518.968 167.174 519.056 167.262C519.144 167.35 519.188 167.475 519.188 167.636V168.494C519.188 168.641 519.137 168.765 519.034 168.868C518.946 168.956 518.829 169 518.682 169H509.42ZM522.476 169C522.329 169 522.204 168.956 522.102 168.868C522.014 168.765 521.97 168.641 521.97 168.494V158.066C521.97 157.919 522.014 157.802 522.102 157.714C522.204 157.611 522.329 157.56 522.476 157.56H523.51C523.656 157.56 523.774 157.611 523.862 157.714C523.964 157.802 524.016 157.919 524.016 158.066V159.034C524.441 158.491 524.94 158.073 525.512 157.78C526.098 157.487 526.824 157.34 527.69 157.34C529.098 157.34 530.19 157.795 530.968 158.704C531.76 159.599 532.156 160.794 532.156 162.29V168.494C532.156 168.641 532.104 168.765 532.002 168.868C531.914 168.956 531.796 169 531.65 169H530.55C530.403 169 530.278 168.956 530.176 168.868C530.088 168.765 530.044 168.641 530.044 168.494V162.4C530.044 161.359 529.787 160.552 529.274 159.98C528.775 159.408 528.049 159.122 527.096 159.122C526.172 159.122 525.438 159.415 524.896 160.002C524.353 160.574 524.082 161.373 524.082 162.4V168.494C524.082 168.641 524.03 168.765 523.928 168.868C523.84 168.956 523.722 169 523.576 169H522.476ZM539.998 173.84C538.795 173.84 537.827 173.635 537.094 173.224C536.36 172.828 535.84 172.373 535.532 171.86C535.224 171.347 535.055 170.885 535.026 170.474C535.011 170.327 535.055 170.203 535.158 170.1C535.275 169.997 535.4 169.946 535.532 169.946H536.588C536.72 169.946 536.83 169.975 536.918 170.034C537.006 170.107 537.079 170.232 537.138 170.408C537.314 170.877 537.6 171.281 537.996 171.618C538.406 171.97 539.037 172.146 539.888 172.146C540.973 172.146 541.772 171.911 542.286 171.442C542.799 170.987 543.056 170.173 543.056 169V167.504C542.674 167.988 542.19 168.377 541.604 168.67C541.017 168.949 540.32 169.088 539.514 169.088C537.959 169.088 536.793 168.597 536.016 167.614C535.253 166.617 534.85 165.355 534.806 163.83L534.784 163.214L534.806 162.62C534.85 161.109 535.26 159.855 536.038 158.858C536.815 157.846 537.974 157.34 539.514 157.34C541.054 157.34 542.256 157.905 543.122 159.034V158.088C543.122 157.941 543.166 157.817 543.254 157.714C543.356 157.611 543.481 157.56 543.628 157.56H544.64C544.786 157.56 544.911 157.611 545.014 157.714C545.116 157.817 545.168 157.941 545.168 158.088V168.758C545.168 172.146 543.444 173.84 539.998 173.84ZM539.954 167.328C540.951 167.328 541.706 166.998 542.22 166.338C542.733 165.678 543.012 164.893 543.056 163.984C543.07 163.852 543.078 163.595 543.078 163.214C543.078 162.847 543.07 162.598 543.056 162.466C543.012 161.557 542.733 160.772 542.22 160.112C541.721 159.452 540.966 159.122 539.954 159.122C538.912 159.122 538.157 159.445 537.688 160.09C537.218 160.735 536.962 161.586 536.918 162.642L536.896 163.214L536.918 163.808C536.962 164.849 537.218 165.7 537.688 166.36C538.157 167.005 538.912 167.328 539.954 167.328ZM548.769 155.426C548.622 155.426 548.497 155.382 548.395 155.294C548.307 155.191 548.263 155.067 548.263 154.92V153.732C548.263 153.585 548.307 153.461 548.395 153.358C548.497 153.255 548.622 153.204 548.769 153.204H550.155C550.301 153.204 550.426 153.255 550.529 153.358C550.631 153.461 550.683 153.585 550.683 153.732V154.92C550.683 155.067 550.631 155.191 550.529 155.294C550.426 155.382 550.301 155.426 550.155 155.426H548.769ZM548.945 169C548.798 169 548.673 168.956 548.571 168.868C548.483 168.765 548.439 168.641 548.439 168.494V158.066C548.439 157.919 548.483 157.802 548.571 157.714C548.673 157.611 548.798 157.56 548.945 157.56H550.001C550.147 157.56 550.265 157.611 550.353 157.714C550.455 157.802 550.507 157.919 550.507 158.066V168.494C550.507 168.641 550.455 168.765 550.353 168.868C550.265 168.956 550.147 169 550.001 169H548.945ZM554.273 169C554.126 169 554.001 168.956 553.899 168.868C553.811 168.765 553.767 168.641 553.767 168.494V158.066C553.767 157.919 553.811 157.802 553.899 157.714C554.001 157.611 554.126 157.56 554.273 157.56H555.307C555.453 157.56 555.571 157.611 555.659 157.714C555.761 157.802 555.813 157.919 555.813 158.066V159.034C556.238 158.491 556.737 158.073 557.309 157.78C557.895 157.487 558.621 157.34 559.487 157.34C560.895 157.34 561.987 157.795 562.765 158.704C563.557 159.599 563.953 160.794 563.953 162.29V168.494C563.953 168.641 563.901 168.765 563.799 168.868C563.711 168.956 563.593 169 563.447 169H562.347C562.2 169 562.075 168.956 561.973 168.868C561.885 168.765 561.841 168.641 561.841 168.494V162.4C561.841 161.359 561.584 160.552 561.071 159.98C560.572 159.408 559.846 159.122 558.893 159.122C557.969 159.122 557.235 159.415 556.693 160.002C556.15 160.574 555.879 161.373 555.879 162.4V168.494C555.879 168.641 555.827 168.765 555.725 168.868C555.637 168.956 555.519 169 555.373 169H554.273ZM571.684 169.22C570.174 169.22 568.964 168.758 568.054 167.834C567.16 166.895 566.668 165.619 566.58 164.006L566.558 163.258L566.58 162.532C566.683 160.948 567.182 159.687 568.076 158.748C568.986 157.809 570.181 157.34 571.662 157.34C573.29 157.34 574.552 157.861 575.446 158.902C576.341 159.929 576.788 161.322 576.788 163.082V163.456C576.788 163.603 576.737 163.727 576.634 163.83C576.546 163.918 576.429 163.962 576.282 163.962H568.67V164.16C568.714 165.113 569 165.927 569.528 166.602C570.071 167.262 570.782 167.592 571.662 167.592C572.337 167.592 572.887 167.46 573.312 167.196C573.752 166.917 574.075 166.631 574.28 166.338C574.412 166.162 574.508 166.059 574.566 166.03C574.64 165.986 574.764 165.964 574.94 165.964H576.018C576.15 165.964 576.26 166.001 576.348 166.074C576.436 166.147 576.48 166.25 576.48 166.382C576.48 166.705 576.275 167.093 575.864 167.548C575.468 168.003 574.904 168.399 574.17 168.736C573.452 169.059 572.623 169.22 571.684 169.22ZM574.698 162.444V162.378C574.698 161.366 574.42 160.545 573.862 159.914C573.32 159.269 572.586 158.946 571.662 158.946C570.738 158.946 570.005 159.269 569.462 159.914C568.934 160.545 568.67 161.366 568.67 162.378V162.444H574.698ZM583.995 169.22C582.484 169.22 581.274 168.758 580.365 167.834C579.47 166.895 578.979 165.619 578.891 164.006L578.869 163.258L578.891 162.532C578.994 160.948 579.492 159.687 580.387 158.748C581.296 157.809 582.492 157.34 583.973 157.34C585.601 157.34 586.862 157.861 587.757 158.902C588.652 159.929 589.099 161.322 589.099 163.082V163.456C589.099 163.603 589.048 163.727 588.945 163.83C588.857 163.918 588.74 163.962 588.593 163.962H580.981V164.16C581.025 165.113 581.311 165.927 581.839 166.602C582.382 167.262 583.093 167.592 583.973 167.592C584.648 167.592 585.198 167.46 585.623 167.196C586.063 166.917 586.386 166.631 586.591 166.338C586.723 166.162 586.818 166.059 586.877 166.03C586.95 165.986 587.075 165.964 587.251 165.964H588.329C588.461 165.964 588.571 166.001 588.659 166.074C588.747 166.147 588.791 166.25 588.791 166.382C588.791 166.705 588.586 167.093 588.175 167.548C587.779 168.003 587.214 168.399 586.481 168.736C585.762 169.059 584.934 169.22 583.995 169.22ZM587.009 162.444V162.378C587.009 161.366 586.73 160.545 586.173 159.914C585.63 159.269 584.897 158.946 583.973 158.946C583.049 158.946 582.316 159.269 581.773 159.914C581.245 160.545 580.981 161.366 580.981 162.378V162.444H587.009ZM592.236 169C592.089 169 591.964 168.956 591.862 168.868C591.774 168.765 591.73 168.641 591.73 168.494V158.088C591.73 157.941 591.774 157.817 591.862 157.714C591.964 157.611 592.089 157.56 592.236 157.56H593.248C593.394 157.56 593.519 157.611 593.622 157.714C593.724 157.817 593.776 157.941 593.776 158.088V159.056C594.377 158.059 595.404 157.56 596.856 157.56H597.714C597.86 157.56 597.978 157.611 598.066 157.714C598.168 157.802 598.22 157.919 598.22 158.066V158.968C598.22 159.115 598.168 159.232 598.066 159.32C597.978 159.408 597.86 159.452 597.714 159.452H596.394C595.602 159.452 594.978 159.687 594.524 160.156C594.069 160.611 593.842 161.234 593.842 162.026V168.494C593.842 168.641 593.79 168.765 593.688 168.868C593.585 168.956 593.46 169 593.314 169H592.236ZM600.417 155.426C600.27 155.426 600.146 155.382 600.043 155.294C599.955 155.191 599.911 155.067 599.911 154.92V153.732C599.911 153.585 599.955 153.461 600.043 153.358C600.146 153.255 600.27 153.204 600.417 153.204H601.803C601.95 153.204 602.074 153.255 602.177 153.358C602.28 153.461 602.331 153.585 602.331 153.732V154.92C602.331 155.067 602.28 155.191 602.177 155.294C602.074 155.382 601.95 155.426 601.803 155.426H600.417ZM600.593 169C600.446 169 600.322 168.956 600.219 168.868C600.131 168.765 600.087 168.641 600.087 168.494V158.066C600.087 157.919 600.131 157.802 600.219 157.714C600.322 157.611 600.446 157.56 600.593 157.56H601.649C601.796 157.56 601.913 157.611 602.001 157.714C602.104 157.802 602.155 157.919 602.155 158.066V168.494C602.155 168.641 602.104 168.765 602.001 168.868C601.913 168.956 601.796 169 601.649 169H600.593ZM605.921 169C605.774 169 605.65 168.956 605.547 168.868C605.459 168.765 605.415 168.641 605.415 168.494V158.066C605.415 157.919 605.459 157.802 605.547 157.714C605.65 157.611 605.774 157.56 605.921 157.56H606.955C607.102 157.56 607.219 157.611 607.307 157.714C607.41 157.802 607.461 157.919 607.461 158.066V159.034C607.886 158.491 608.385 158.073 608.957 157.78C609.544 157.487 610.27 157.34 611.135 157.34C612.543 157.34 613.636 157.795 614.413 158.704C615.205 159.599 615.601 160.794 615.601 162.29V168.494C615.601 168.641 615.55 168.765 615.447 168.868C615.359 168.956 615.242 169 615.095 169H613.995C613.848 169 613.724 168.956 613.621 168.868C613.533 168.765 613.489 168.641 613.489 168.494V162.4C613.489 161.359 613.232 160.552 612.719 159.98C612.22 159.408 611.494 159.122 610.541 159.122C609.617 159.122 608.884 159.415 608.341 160.002C607.798 160.574 607.527 161.373 607.527 162.4V168.494C607.527 168.641 607.476 168.765 607.373 168.868C607.285 168.956 607.168 169 607.021 169H605.921ZM623.443 173.84C622.24 173.84 621.272 173.635 620.539 173.224C619.806 172.828 619.285 172.373 618.977 171.86C618.669 171.347 618.5 170.885 618.471 170.474C618.456 170.327 618.5 170.203 618.603 170.1C618.72 169.997 618.845 169.946 618.977 169.946H620.033C620.165 169.946 620.275 169.975 620.363 170.034C620.451 170.107 620.524 170.232 620.583 170.408C620.759 170.877 621.045 171.281 621.441 171.618C621.852 171.97 622.482 172.146 623.333 172.146C624.418 172.146 625.218 171.911 625.731 171.442C626.244 170.987 626.501 170.173 626.501 169V167.504C626.12 167.988 625.636 168.377 625.049 168.67C624.462 168.949 623.766 169.088 622.959 169.088C621.404 169.088 620.238 168.597 619.461 167.614C618.698 166.617 618.295 165.355 618.251 163.83L618.229 163.214L618.251 162.62C618.295 161.109 618.706 159.855 619.483 158.858C620.26 157.846 621.419 157.34 622.959 157.34C624.499 157.34 625.702 157.905 626.567 159.034V158.088C626.567 157.941 626.611 157.817 626.699 157.714C626.802 157.611 626.926 157.56 627.073 157.56H628.085C628.232 157.56 628.356 157.611 628.459 157.714C628.562 157.817 628.613 157.941 628.613 158.088V168.758C628.613 172.146 626.89 173.84 623.443 173.84ZM623.399 167.328C624.396 167.328 625.152 166.998 625.665 166.338C626.178 165.678 626.457 164.893 626.501 163.984C626.516 163.852 626.523 163.595 626.523 163.214C626.523 162.847 626.516 162.598 626.501 162.466C626.457 161.557 626.178 160.772 625.665 160.112C625.166 159.452 624.411 159.122 623.399 159.122C622.358 159.122 621.602 159.445 621.133 160.09C620.664 160.735 620.407 161.586 620.363 162.642L620.341 163.214L620.363 163.808C620.407 164.849 620.664 165.7 621.133 166.36C621.602 167.005 622.358 167.328 623.399 167.328ZM509.42 195C509.273 195 509.149 194.956 509.046 194.868C508.958 194.765 508.914 194.641 508.914 194.494V180.128C508.914 179.967 508.958 179.842 509.046 179.754C509.149 179.651 509.273 179.6 509.42 179.6H518.506C518.653 179.6 518.77 179.651 518.858 179.754C518.961 179.842 519.012 179.967 519.012 180.128V180.964C519.012 181.111 518.968 181.235 518.88 181.338C518.792 181.426 518.667 181.47 518.506 181.47H511.026V186.288H518.022C518.169 186.288 518.286 186.339 518.374 186.442C518.477 186.53 518.528 186.655 518.528 186.816V187.63C518.528 187.777 518.477 187.901 518.374 188.004C518.286 188.092 518.169 188.136 518.022 188.136H511.026V193.13H518.682C518.843 193.13 518.968 193.174 519.056 193.262C519.144 193.35 519.188 193.475 519.188 193.636V194.494C519.188 194.641 519.137 194.765 519.034 194.868C518.946 194.956 518.829 195 518.682 195H509.42ZM521.442 195C521.324 195 521.214 194.956 521.112 194.868C521.024 194.78 520.98 194.67 520.98 194.538C520.98 194.406 521.031 194.274 521.134 194.142L524.962 189.148L521.376 184.418C521.273 184.301 521.222 184.169 521.222 184.022C521.222 183.89 521.266 183.78 521.354 183.692C521.442 183.604 521.552 183.56 521.684 183.56H522.806C523.026 183.56 523.216 183.677 523.378 183.912L526.304 187.718L529.23 183.934C529.318 183.817 529.398 183.729 529.472 183.67C529.56 183.597 529.67 183.56 529.802 183.56H530.88C531.012 183.56 531.122 183.604 531.21 183.692C531.298 183.78 531.342 183.89 531.342 184.022C531.342 184.169 531.29 184.301 531.188 184.418L527.558 189.192L531.386 194.142C531.488 194.274 531.54 194.406 531.54 194.538C531.54 194.67 531.496 194.78 531.408 194.868C531.32 194.956 531.21 195 531.078 195H529.912C529.692 195 529.501 194.89 529.34 194.67L526.26 190.644L523.136 194.67C523.048 194.773 522.96 194.853 522.872 194.912C522.798 194.971 522.696 195 522.564 195H521.442ZM538.148 195.22C536.579 195.22 535.347 194.78 534.452 193.9C533.572 193.005 533.103 191.759 533.044 190.16L533.022 189.28L533.044 188.4C533.103 186.801 533.572 185.562 534.452 184.682C535.347 183.787 536.579 183.34 538.148 183.34C539.204 183.34 540.099 183.531 540.832 183.912C541.566 184.293 542.108 184.763 542.46 185.32C542.827 185.877 543.025 186.435 543.054 186.992C543.069 187.139 543.025 187.256 542.922 187.344C542.82 187.432 542.695 187.476 542.548 187.476H541.492C541.346 187.476 541.236 187.447 541.162 187.388C541.089 187.329 541.016 187.212 540.942 187.036C540.693 186.332 540.341 185.833 539.886 185.54C539.432 185.232 538.86 185.078 538.17 185.078C537.261 185.078 536.535 185.364 535.992 185.936C535.464 186.493 535.178 187.351 535.134 188.51L535.112 189.302L535.134 190.05C535.178 191.223 535.464 192.089 535.992 192.646C536.52 193.203 537.246 193.482 538.17 193.482C538.86 193.482 539.432 193.335 539.886 193.042C540.341 192.734 540.693 192.228 540.942 191.524C541.016 191.348 541.089 191.231 541.162 191.172C541.236 191.099 541.346 191.062 541.492 191.062H542.548C542.695 191.062 542.82 191.113 542.922 191.216C543.025 191.304 543.069 191.421 543.054 191.568C543.025 192.111 542.827 192.668 542.46 193.24C542.108 193.797 541.566 194.267 540.832 194.648C540.114 195.029 539.219 195.22 538.148 195.22ZM550.243 195.22C548.732 195.22 547.522 194.758 546.613 193.834C545.718 192.895 545.227 191.619 545.139 190.006L545.117 189.258L545.139 188.532C545.242 186.948 545.74 185.687 546.635 184.748C547.544 183.809 548.74 183.34 550.221 183.34C551.849 183.34 553.11 183.861 554.005 184.902C554.9 185.929 555.347 187.322 555.347 189.082V189.456C555.347 189.603 555.296 189.727 555.193 189.83C555.105 189.918 554.988 189.962 554.841 189.962H547.229V190.16C547.273 191.113 547.559 191.927 548.087 192.602C548.63 193.262 549.341 193.592 550.221 193.592C550.896 193.592 551.446 193.46 551.871 193.196C552.311 192.917 552.634 192.631 552.839 192.338C552.971 192.162 553.066 192.059 553.125 192.03C553.198 191.986 553.323 191.964 553.499 191.964H554.577C554.709 191.964 554.819 192.001 554.907 192.074C554.995 192.147 555.039 192.25 555.039 192.382C555.039 192.705 554.834 193.093 554.423 193.548C554.027 194.003 553.462 194.399 552.729 194.736C552.01 195.059 551.182 195.22 550.243 195.22ZM553.257 188.444V188.378C553.257 187.366 552.978 186.545 552.421 185.914C551.878 185.269 551.145 184.946 550.221 184.946C549.297 184.946 548.564 185.269 548.021 185.914C547.493 186.545 547.229 187.366 547.229 188.378V188.444H553.257ZM558.506 195C558.359 195 558.234 194.956 558.132 194.868C558.044 194.765 558 194.641 558 194.494V179.886C558 179.739 558.044 179.622 558.132 179.534C558.234 179.431 558.359 179.38 558.506 179.38H559.54C559.686 179.38 559.804 179.431 559.892 179.534C559.994 179.622 560.046 179.739 560.046 179.886V194.494C560.046 194.641 559.994 194.765 559.892 194.868C559.804 194.956 559.686 195 559.54 195H558.506ZM563.855 195C563.709 195 563.584 194.956 563.481 194.868C563.393 194.765 563.349 194.641 563.349 194.494V179.886C563.349 179.739 563.393 179.622 563.481 179.534C563.584 179.431 563.709 179.38 563.855 179.38H564.889C565.036 179.38 565.153 179.431 565.241 179.534C565.344 179.622 565.395 179.739 565.395 179.886V194.494C565.395 194.641 565.344 194.765 565.241 194.868C565.153 194.956 565.036 195 564.889 195H563.855ZM573.253 195.22C571.742 195.22 570.532 194.758 569.623 193.834C568.728 192.895 568.237 191.619 568.149 190.006L568.127 189.258L568.149 188.532C568.251 186.948 568.75 185.687 569.645 184.748C570.554 183.809 571.749 183.34 573.231 183.34C574.859 183.34 576.12 183.861 577.015 184.902C577.909 185.929 578.357 187.322 578.357 189.082V189.456C578.357 189.603 578.305 189.727 578.203 189.83C578.115 189.918 577.997 189.962 577.851 189.962H570.239V190.16C570.283 191.113 570.569 191.927 571.097 192.602C571.639 193.262 572.351 193.592 573.231 193.592C573.905 193.592 574.455 193.46 574.881 193.196C575.321 192.917 575.643 192.631 575.849 192.338C575.981 192.162 576.076 192.059 576.135 192.03C576.208 191.986 576.333 191.964 576.509 191.964H577.587C577.719 191.964 577.829 192.001 577.917 192.074C578.005 192.147 578.049 192.25 578.049 192.382C578.049 192.705 577.843 193.093 577.433 193.548C577.037 194.003 576.472 194.399 575.739 194.736C575.02 195.059 574.191 195.22 573.253 195.22ZM576.267 188.444V188.378C576.267 187.366 575.988 186.545 575.431 185.914C574.888 185.269 574.155 184.946 573.231 184.946C572.307 184.946 571.573 185.269 571.031 185.914C570.503 186.545 570.239 187.366 570.239 188.378V188.444H576.267ZM581.493 195C581.347 195 581.222 194.956 581.119 194.868C581.031 194.765 580.987 194.641 580.987 194.494V184.066C580.987 183.919 581.031 183.802 581.119 183.714C581.222 183.611 581.347 183.56 581.493 183.56H582.527C582.674 183.56 582.791 183.611 582.879 183.714C582.982 183.802 583.033 183.919 583.033 184.066V185.034C583.459 184.491 583.957 184.073 584.529 183.78C585.116 183.487 585.842 183.34 586.707 183.34C588.115 183.34 589.208 183.795 589.985 184.704C590.777 185.599 591.173 186.794 591.173 188.29V194.494C591.173 194.641 591.122 194.765 591.019 194.868C590.931 194.956 590.814 195 590.667 195H589.567C589.421 195 589.296 194.956 589.193 194.868C589.105 194.765 589.061 194.641 589.061 194.494V188.4C589.061 187.359 588.805 186.552 588.291 185.98C587.793 185.408 587.067 185.122 586.113 185.122C585.189 185.122 584.456 185.415 583.913 186.002C583.371 186.574 583.099 187.373 583.099 188.4V194.494C583.099 194.641 583.048 194.765 582.945 194.868C582.857 194.956 582.74 195 582.593 195H581.493ZM598.949 195.22C597.38 195.22 596.148 194.78 595.253 193.9C594.373 193.005 593.904 191.759 593.845 190.16L593.823 189.28L593.845 188.4C593.904 186.801 594.373 185.562 595.253 184.682C596.148 183.787 597.38 183.34 598.949 183.34C600.005 183.34 600.9 183.531 601.633 183.912C602.367 184.293 602.909 184.763 603.261 185.32C603.628 185.877 603.826 186.435 603.855 186.992C603.87 187.139 603.826 187.256 603.723 187.344C603.621 187.432 603.496 187.476 603.349 187.476H602.293C602.147 187.476 602.037 187.447 601.963 187.388C601.89 187.329 601.817 187.212 601.743 187.036C601.494 186.332 601.142 185.833 600.687 185.54C600.233 185.232 599.661 185.078 598.971 185.078C598.062 185.078 597.336 185.364 596.793 185.936C596.265 186.493 595.979 187.351 595.935 188.51L595.913 189.302L595.935 190.05C595.979 191.223 596.265 192.089 596.793 192.646C597.321 193.203 598.047 193.482 598.971 193.482C599.661 193.482 600.233 193.335 600.687 193.042C601.142 192.734 601.494 192.228 601.743 191.524C601.817 191.348 601.89 191.231 601.963 191.172C602.037 191.099 602.147 191.062 602.293 191.062H603.349C603.496 191.062 603.621 191.113 603.723 191.216C603.826 191.304 603.87 191.421 603.855 191.568C603.826 192.111 603.628 192.668 603.261 193.24C602.909 193.797 602.367 194.267 601.633 194.648C600.915 195.029 600.02 195.22 598.949 195.22ZM611.044 195.22C609.533 195.22 608.323 194.758 607.414 193.834C606.519 192.895 606.028 191.619 605.94 190.006L605.918 189.258L605.94 188.532C606.043 186.948 606.541 185.687 607.436 184.748C608.345 183.809 609.541 183.34 611.022 183.34C612.65 183.34 613.911 183.861 614.806 184.902C615.701 185.929 616.148 187.322 616.148 189.082V189.456C616.148 189.603 616.097 189.727 615.994 189.83C615.906 189.918 615.789 189.962 615.642 189.962H608.03V190.16C608.074 191.113 608.36 191.927 608.888 192.602C609.431 193.262 610.142 193.592 611.022 193.592C611.697 193.592 612.247 193.46 612.672 193.196C613.112 192.917 613.435 192.631 613.64 192.338C613.772 192.162 613.867 192.059 613.926 192.03C613.999 191.986 614.124 191.964 614.3 191.964H615.378C615.51 191.964 615.62 192.001 615.708 192.074C615.796 192.147 615.84 192.25 615.84 192.382C615.84 192.705 615.635 193.093 615.224 193.548C614.828 194.003 614.263 194.399 613.53 194.736C612.811 195.059 611.983 195.22 611.044 195.22ZM614.058 188.444V188.378C614.058 187.366 613.779 186.545 613.222 185.914C612.679 185.269 611.946 184.946 611.022 184.946C610.098 184.946 609.365 185.269 608.822 185.914C608.294 186.545 608.03 187.366 608.03 188.378V188.444H614.058Z" fill="#373935"/>
<path d="M424.42 422C424.273 422 424.149 421.956 424.046 421.868C423.958 421.765 423.914 421.641 423.914 421.494V407.128C423.914 406.967 423.958 406.842 424.046 406.754C424.149 406.651 424.273 406.6 424.42 406.6H430.008C431.665 406.6 432.971 407.003 433.924 407.81C434.877 408.617 435.354 409.783 435.354 411.308C435.354 412.833 434.877 413.999 433.924 414.806C432.985 415.598 431.68 415.994 430.008 415.994H426.114V421.494C426.114 421.641 426.063 421.765 425.96 421.868C425.857 421.956 425.733 422 425.586 422H424.42ZM429.898 414.146C430.969 414.146 431.775 413.904 432.318 413.42C432.875 412.936 433.154 412.232 433.154 411.308C433.154 410.384 432.883 409.68 432.34 409.196C431.797 408.697 430.983 408.448 429.898 408.448H426.092V414.146H429.898ZM442.169 422.22C440.658 422.22 439.448 421.758 438.539 420.834C437.644 419.895 437.153 418.619 437.065 417.006L437.043 416.258L437.065 415.532C437.168 413.948 437.666 412.687 438.561 411.748C439.47 410.809 440.666 410.34 442.147 410.34C443.775 410.34 445.036 410.861 445.931 411.902C446.826 412.929 447.273 414.322 447.273 416.082V416.456C447.273 416.603 447.222 416.727 447.119 416.83C447.031 416.918 446.914 416.962 446.767 416.962H439.155V417.16C439.199 418.113 439.485 418.927 440.013 419.602C440.556 420.262 441.267 420.592 442.147 420.592C442.822 420.592 443.372 420.46 443.797 420.196C444.237 419.917 444.56 419.631 444.765 419.338C444.897 419.162 444.992 419.059 445.051 419.03C445.124 418.986 445.249 418.964 445.425 418.964H446.503C446.635 418.964 446.745 419.001 446.833 419.074C446.921 419.147 446.965 419.25 446.965 419.382C446.965 419.705 446.76 420.093 446.349 420.548C445.953 421.003 445.388 421.399 444.655 421.736C443.936 422.059 443.108 422.22 442.169 422.22ZM445.183 415.444V415.378C445.183 414.366 444.904 413.545 444.347 412.914C443.804 412.269 443.071 411.946 442.147 411.946C441.223 411.946 440.49 412.269 439.947 412.914C439.419 413.545 439.155 414.366 439.155 415.378V415.444H445.183ZM454.589 422.22C452.976 422.22 451.722 421.765 450.827 420.856C449.947 419.947 449.478 418.737 449.419 417.226L449.397 416.28L449.419 415.334C449.478 413.838 449.955 412.635 450.849 411.726C451.744 410.802 452.991 410.34 454.589 410.34C456.188 410.34 457.435 410.802 458.329 411.726C459.224 412.635 459.701 413.838 459.759 415.334C459.774 415.495 459.781 415.811 459.781 416.28C459.781 416.749 459.774 417.065 459.759 417.226C459.701 418.737 459.224 419.947 458.329 420.856C457.449 421.765 456.203 422.22 454.589 422.22ZM454.589 420.526C455.513 420.526 456.239 420.233 456.767 419.646C457.31 419.059 457.603 418.216 457.647 417.116C457.662 416.969 457.669 416.691 457.669 416.28C457.669 415.869 457.662 415.591 457.647 415.444C457.603 414.344 457.31 413.501 456.767 412.914C456.239 412.327 455.513 412.034 454.589 412.034C453.665 412.034 452.932 412.327 452.389 412.914C451.847 413.501 451.561 414.344 451.531 415.444L451.509 416.28L451.531 417.116C451.561 418.216 451.847 419.059 452.389 419.646C452.932 420.233 453.665 420.526 454.589 420.526ZM463.064 426.18C462.918 426.18 462.793 426.129 462.69 426.026C462.602 425.938 462.558 425.821 462.558 425.674V411.066C462.558 410.919 462.602 410.802 462.69 410.714C462.793 410.611 462.918 410.56 463.064 410.56H464.076C464.223 410.56 464.34 410.611 464.428 410.714C464.531 410.802 464.582 410.919 464.582 411.066V412.034C465.404 410.905 466.606 410.34 468.19 410.34C469.73 410.34 470.882 410.824 471.644 411.792C472.422 412.76 472.84 414.007 472.898 415.532C472.913 415.693 472.92 415.943 472.92 416.28C472.92 416.617 472.913 416.867 472.898 417.028C472.84 418.539 472.422 419.785 471.644 420.768C470.867 421.736 469.716 422.22 468.19 422.22C466.665 422.22 465.477 421.67 464.626 420.57V425.674C464.626 425.821 464.582 425.938 464.494 426.026C464.406 426.129 464.289 426.18 464.142 426.18H463.064ZM467.728 420.438C468.77 420.438 469.525 420.115 469.994 419.47C470.478 418.825 470.742 417.974 470.786 416.918C470.801 416.771 470.808 416.559 470.808 416.28C470.808 413.508 469.782 412.122 467.728 412.122C466.716 412.122 465.954 412.459 465.44 413.134C464.942 413.794 464.67 414.586 464.626 415.51L464.604 416.346L464.626 417.204C464.656 418.069 464.934 418.825 465.462 419.47C465.99 420.115 466.746 420.438 467.728 420.438ZM476.17 422C476.023 422 475.898 421.956 475.796 421.868C475.708 421.765 475.664 421.641 475.664 421.494V406.886C475.664 406.739 475.708 406.622 475.796 406.534C475.898 406.431 476.023 406.38 476.17 406.38H477.204C477.35 406.38 477.468 406.431 477.556 406.534C477.658 406.622 477.71 406.739 477.71 406.886V421.494C477.71 421.641 477.658 421.765 477.556 421.868C477.468 421.956 477.35 422 477.204 422H476.17ZM485.567 422.22C484.057 422.22 482.847 421.758 481.937 420.834C481.043 419.895 480.551 418.619 480.463 417.006L480.441 416.258L480.463 415.532C480.566 413.948 481.065 412.687 481.959 411.748C482.869 410.809 484.064 410.34 485.545 410.34C487.173 410.34 488.435 410.861 489.329 411.902C490.224 412.929 490.671 414.322 490.671 416.082V416.456C490.671 416.603 490.62 416.727 490.517 416.83C490.429 416.918 490.312 416.962 490.165 416.962H482.553V417.16C482.597 418.113 482.883 418.927 483.411 419.602C483.954 420.262 484.665 420.592 485.545 420.592C486.22 420.592 486.77 420.46 487.195 420.196C487.635 419.917 487.958 419.631 488.163 419.338C488.295 419.162 488.391 419.059 488.449 419.03C488.523 418.986 488.647 418.964 488.823 418.964H489.901C490.033 418.964 490.143 419.001 490.231 419.074C490.319 419.147 490.363 419.25 490.363 419.382C490.363 419.705 490.158 420.093 489.747 420.548C489.351 421.003 488.787 421.399 488.053 421.736C487.335 422.059 486.506 422.22 485.567 422.22ZM488.581 415.444V415.378C488.581 414.366 488.303 413.545 487.745 412.914C487.203 412.269 486.469 411.946 485.545 411.946C484.621 411.946 483.888 412.269 483.345 412.914C482.817 413.545 482.553 414.366 482.553 415.378V415.444H488.581Z" fill="#373935"/>
<path d="M8.1004 414.22C6.13507 414.22 4.63907 413.692 3.6124 412.636C2.6004 411.58 2.05773 410.121 1.9844 408.258C1.96973 407.862 1.9624 407.217 1.9624 406.322C1.9624 405.413 1.96973 404.753 1.9844 404.342C2.05773 402.494 2.60773 401.042 3.6344 399.986C4.66107 398.915 6.14973 398.38 8.1004 398.38C9.40573 398.38 10.513 398.615 11.4224 399.084C12.3317 399.539 13.021 400.14 13.4904 400.888C13.9597 401.636 14.2164 402.435 14.2604 403.286V403.33C14.2604 403.447 14.209 403.55 14.1064 403.638C14.0184 403.711 13.9157 403.748 13.7984 403.748H12.5884C12.295 403.748 12.1117 403.579 12.0384 403.242C11.789 402.142 11.3417 401.372 10.6964 400.932C10.051 400.477 9.18573 400.25 8.1004 400.25C5.57773 400.25 4.2724 401.651 4.1844 404.452C4.16973 404.848 4.1624 405.457 4.1624 406.278C4.1624 407.099 4.16973 407.723 4.1844 408.148C4.2724 410.949 5.57773 412.35 8.1004 412.35C9.18573 412.35 10.051 412.13 10.6964 411.69C11.3564 411.235 11.8037 410.458 12.0384 409.358C12.0824 409.167 12.1484 409.035 12.2364 408.962C12.3244 408.889 12.4417 408.852 12.5884 408.852H13.7984C13.9304 408.852 14.0404 408.896 14.1284 408.984C14.231 409.057 14.275 409.16 14.2604 409.292C14.2164 410.157 13.9597 410.964 13.4904 411.712C13.021 412.46 12.3317 413.069 11.4224 413.538C10.513 413.993 9.40573 414.22 8.1004 414.22ZM21.6087 414.22C19.9954 414.22 18.7414 413.765 17.8467 412.856C16.9667 411.947 16.4974 410.737 16.4387 409.226L16.4167 408.28L16.4387 407.334C16.4974 405.838 16.9741 404.635 17.8687 403.726C18.7634 402.802 20.0101 402.34 21.6087 402.34C23.2074 402.34 24.4541 402.802 25.3487 403.726C26.2434 404.635 26.7201 405.838 26.7787 407.334C26.7934 407.495 26.8007 407.811 26.8007 408.28C26.8007 408.749 26.7934 409.065 26.7787 409.226C26.7201 410.737 26.2434 411.947 25.3487 412.856C24.4687 413.765 23.2221 414.22 21.6087 414.22ZM21.6087 412.526C22.5327 412.526 23.2587 412.233 23.7867 411.646C24.3294 411.059 24.6227 410.216 24.6667 409.116C24.6814 408.969 24.6887 408.691 24.6887 408.28C24.6887 407.869 24.6814 407.591 24.6667 407.444C24.6227 406.344 24.3294 405.501 23.7867 404.914C23.2587 404.327 22.5327 404.034 21.6087 404.034C20.6847 404.034 19.9514 404.327 19.4087 404.914C18.8661 405.501 18.5801 406.344 18.5507 407.444L18.5287 408.28L18.5507 409.116C18.5801 410.216 18.8661 411.059 19.4087 411.646C19.9514 412.233 20.6847 412.526 21.6087 412.526ZM30.0615 414C29.9149 414 29.7902 413.956 29.6875 413.868C29.5995 413.765 29.5555 413.641 29.5555 413.494V403.066C29.5555 402.919 29.5995 402.802 29.6875 402.714C29.7902 402.611 29.9149 402.56 30.0615 402.56H31.0515C31.1982 402.56 31.3155 402.611 31.4035 402.714C31.5062 402.802 31.5575 402.919 31.5575 403.066V403.836C32.3202 402.839 33.3835 402.34 34.7475 402.34C36.3755 402.34 37.5269 403.015 38.2015 404.364C38.5535 403.748 39.0522 403.257 39.6975 402.89C40.3429 402.523 41.0689 402.34 41.8755 402.34C43.0782 402.34 44.0609 402.751 44.8235 403.572C45.5862 404.393 45.9675 405.581 45.9675 407.136V413.494C45.9675 413.641 45.9162 413.765 45.8135 413.868C45.7255 413.956 45.6082 414 45.4615 414H44.4275C44.2809 414 44.1562 413.956 44.0535 413.868C43.9655 413.765 43.9215 413.641 43.9215 413.494V407.334C43.9215 406.19 43.6795 405.369 43.1955 404.87C42.7262 404.371 42.1029 404.122 41.3255 404.122C40.6362 404.122 40.0422 404.379 39.5435 404.892C39.0449 405.391 38.7955 406.205 38.7955 407.334V413.494C38.7955 413.641 38.7442 413.765 38.6415 413.868C38.5535 413.956 38.4362 414 38.2895 414H37.2555C37.1089 414 36.9842 413.956 36.8815 413.868C36.7935 413.765 36.7495 413.641 36.7495 413.494V407.334C36.7495 406.19 36.5002 405.369 36.0015 404.87C35.5175 404.371 34.9015 404.122 34.1535 404.122C33.4642 404.122 32.8702 404.379 32.3715 404.892C31.8729 405.391 31.6235 406.197 31.6235 407.312V413.494C31.6235 413.641 31.5722 413.765 31.4695 413.868C31.3815 413.956 31.2642 414 31.1175 414H30.0615ZM49.6123 414C49.4656 414 49.341 413.956 49.2383 413.868C49.1503 413.765 49.1063 413.641 49.1063 413.494V403.066C49.1063 402.919 49.1503 402.802 49.2383 402.714C49.341 402.611 49.4656 402.56 49.6123 402.56H50.6023C50.749 402.56 50.8663 402.611 50.9543 402.714C51.057 402.802 51.1083 402.919 51.1083 403.066V403.836C51.871 402.839 52.9343 402.34 54.2983 402.34C55.9263 402.34 57.0776 403.015 57.7523 404.364C58.1043 403.748 58.603 403.257 59.2483 402.89C59.8936 402.523 60.6196 402.34 61.4263 402.34C62.629 402.34 63.6116 402.751 64.3743 403.572C65.137 404.393 65.5183 405.581 65.5183 407.136V413.494C65.5183 413.641 65.467 413.765 65.3643 413.868C65.2763 413.956 65.159 414 65.0123 414H63.9783C63.8316 414 63.707 413.956 63.6043 413.868C63.5163 413.765 63.4723 413.641 63.4723 413.494V407.334C63.4723 406.19 63.2303 405.369 62.7463 404.87C62.277 404.371 61.6537 404.122 60.8763 404.122C60.187 404.122 59.593 404.379 59.0943 404.892C58.5956 405.391 58.3463 406.205 58.3463 407.334V413.494C58.3463 413.641 58.295 413.765 58.1923 413.868C58.1043 413.956 57.987 414 57.8403 414H56.8063C56.6596 414 56.535 413.956 56.4323 413.868C56.3443 413.765 56.3003 413.641 56.3003 413.494V407.334C56.3003 406.19 56.051 405.369 55.5523 404.87C55.0683 404.371 54.4523 404.122 53.7043 404.122C53.015 404.122 52.421 404.379 51.9223 404.892C51.4236 405.391 51.1743 406.197 51.1743 407.312V413.494C51.1743 413.641 51.123 413.765 51.0203 413.868C50.9323 413.956 50.815 414 50.6683 414H49.6123ZM72.9251 414.22C71.5318 414.22 70.4538 413.773 69.6911 412.878C68.9284 411.969 68.5471 410.766 68.5471 409.27V403.066C68.5471 402.919 68.5911 402.802 68.6791 402.714C68.7818 402.611 68.9064 402.56 69.0531 402.56H70.1531C70.2998 402.56 70.4171 402.611 70.5051 402.714C70.6078 402.802 70.6591 402.919 70.6591 403.066V409.16C70.6591 411.345 71.6124 412.438 73.5191 412.438C74.4431 412.438 75.1764 412.152 75.7191 411.58C76.2618 410.993 76.5331 410.187 76.5331 409.16V403.066C76.5331 402.919 76.5771 402.802 76.6651 402.714C76.7678 402.611 76.8924 402.56 77.0391 402.56H78.1391C78.2858 402.56 78.4031 402.611 78.4911 402.714C78.5791 402.802 78.6231 402.919 78.6231 403.066V413.494C78.6231 413.641 78.5791 413.765 78.4911 413.868C78.4031 413.956 78.2858 414 78.1391 414H77.1051C76.9584 414 76.8338 413.956 76.7311 413.868C76.6431 413.765 76.5991 413.641 76.5991 413.494V412.526C76.1884 413.083 75.6898 413.509 75.1031 413.802C74.5164 414.081 73.7904 414.22 72.9251 414.22ZM82.3975 414C82.2508 414 82.1261 413.956 82.0235 413.868C81.9355 413.765 81.8915 413.641 81.8915 413.494V403.066C81.8915 402.919 81.9355 402.802 82.0235 402.714C82.1261 402.611 82.2508 402.56 82.3975 402.56H83.4315C83.5781 402.56 83.6955 402.611 83.7835 402.714C83.8861 402.802 83.9375 402.919 83.9375 403.066V404.034C84.3628 403.491 84.8615 403.073 85.4335 402.78C86.0201 402.487 86.7461 402.34 87.6115 402.34C89.0195 402.34 90.1121 402.795 90.8895 403.704C91.6815 404.599 92.0775 405.794 92.0775 407.29V413.494C92.0775 413.641 92.0261 413.765 91.9235 413.868C91.8355 413.956 91.7181 414 91.5715 414H90.4715C90.3248 414 90.2001 413.956 90.0975 413.868C90.0095 413.765 89.9655 413.641 89.9655 413.494V407.4C89.9655 406.359 89.7088 405.552 89.1955 404.98C88.6968 404.408 87.9708 404.122 87.0175 404.122C86.0935 404.122 85.3601 404.415 84.8175 405.002C84.2748 405.574 84.0035 406.373 84.0035 407.4V413.494C84.0035 413.641 83.9521 413.765 83.8495 413.868C83.7615 413.956 83.6441 414 83.4975 414H82.3975ZM95.5633 400.426C95.4166 400.426 95.2919 400.382 95.1893 400.294C95.1013 400.191 95.0573 400.067 95.0573 399.92V398.732C95.0573 398.585 95.1013 398.461 95.1893 398.358C95.2919 398.255 95.4166 398.204 95.5633 398.204H96.9493C97.0959 398.204 97.2206 398.255 97.3233 398.358C97.4259 398.461 97.4773 398.585 97.4773 398.732V399.92C97.4773 400.067 97.4259 400.191 97.3233 400.294C97.2206 400.382 97.0959 400.426 96.9493 400.426H95.5633ZM95.7393 414C95.5926 414 95.4679 413.956 95.3653 413.868C95.2773 413.765 95.2333 413.641 95.2333 413.494V403.066C95.2333 402.919 95.2773 402.802 95.3653 402.714C95.4679 402.611 95.5926 402.56 95.7393 402.56H96.7953C96.9419 402.56 97.0593 402.611 97.1473 402.714C97.2499 402.802 97.3013 402.919 97.3013 403.066V413.494C97.3013 413.641 97.2499 413.765 97.1473 413.868C97.0593 413.956 96.9419 414 96.7953 414H95.7393ZM105.182 414.22C103.612 414.22 102.38 413.78 101.486 412.9C100.606 412.005 100.136 410.759 100.078 409.16L100.056 408.28L100.078 407.4C100.136 405.801 100.606 404.562 101.486 403.682C102.38 402.787 103.612 402.34 105.182 402.34C106.238 402.34 107.132 402.531 107.866 402.912C108.599 403.293 109.142 403.763 109.494 404.32C109.86 404.877 110.058 405.435 110.088 405.992C110.102 406.139 110.058 406.256 109.956 406.344C109.853 406.432 109.728 406.476 109.582 406.476H108.526C108.379 406.476 108.269 406.447 108.196 406.388C108.122 406.329 108.049 406.212 107.976 406.036C107.726 405.332 107.374 404.833 106.92 404.54C106.465 404.232 105.893 404.078 105.204 404.078C104.294 404.078 103.568 404.364 103.026 404.936C102.498 405.493 102.212 406.351 102.168 407.51L102.146 408.302L102.168 409.05C102.212 410.223 102.498 411.089 103.026 411.646C103.554 412.203 104.28 412.482 105.204 412.482C105.893 412.482 106.465 412.335 106.92 412.042C107.374 411.734 107.726 411.228 107.976 410.524C108.049 410.348 108.122 410.231 108.196 410.172C108.269 410.099 108.379 410.062 108.526 410.062H109.582C109.728 410.062 109.853 410.113 109.956 410.216C110.058 410.304 110.102 410.421 110.088 410.568C110.058 411.111 109.86 411.668 109.494 412.24C109.142 412.797 108.599 413.267 107.866 413.648C107.147 414.029 106.252 414.22 105.182 414.22ZM115.89 414.22C115.172 414.22 114.504 414.073 113.888 413.78C113.272 413.487 112.781 413.091 112.414 412.592C112.062 412.079 111.886 411.514 111.886 410.898C111.886 409.93 112.282 409.138 113.074 408.522C113.881 407.891 114.966 407.481 116.33 407.29L119.608 406.828V406.19C119.608 404.694 118.75 403.946 117.034 403.946C116.389 403.946 115.861 404.085 115.45 404.364C115.04 404.628 114.732 404.943 114.526 405.31C114.482 405.442 114.424 405.537 114.35 405.596C114.292 405.655 114.204 405.684 114.086 405.684H113.14C113.008 405.684 112.891 405.64 112.788 405.552C112.7 405.449 112.656 405.332 112.656 405.2C112.671 404.848 112.832 404.452 113.14 404.012C113.463 403.557 113.954 403.169 114.614 402.846C115.274 402.509 116.088 402.34 117.056 402.34C118.699 402.34 119.88 402.729 120.598 403.506C121.317 404.269 121.676 405.222 121.676 406.366V413.494C121.676 413.641 121.625 413.765 121.522 413.868C121.434 413.956 121.317 414 121.17 414H120.158C120.012 414 119.887 413.956 119.784 413.868C119.696 413.765 119.652 413.641 119.652 413.494V412.548C119.33 413.017 118.86 413.413 118.244 413.736C117.628 414.059 116.844 414.22 115.89 414.22ZM116.352 412.57C117.306 412.57 118.083 412.262 118.684 411.646C119.3 411.015 119.608 410.113 119.608 408.94V408.324L117.056 408.698C116.015 408.845 115.23 409.094 114.702 409.446C114.174 409.783 113.91 410.216 113.91 410.744C113.91 411.331 114.152 411.785 114.636 412.108C115.12 412.416 115.692 412.57 116.352 412.57ZM129.198 414C126.88 414 125.722 412.709 125.722 410.128V404.32H124.006C123.859 404.32 123.734 404.276 123.632 404.188C123.544 404.085 123.5 403.961 123.5 403.814V403.066C123.5 402.919 123.544 402.802 123.632 402.714C123.734 402.611 123.859 402.56 124.006 402.56H125.722V398.886C125.722 398.739 125.766 398.622 125.854 398.534C125.956 398.431 126.081 398.38 126.228 398.38H127.262C127.408 398.38 127.526 398.431 127.614 398.534C127.716 398.622 127.768 398.739 127.768 398.886V402.56H130.496C130.642 402.56 130.76 402.611 130.848 402.714C130.95 402.802 131.002 402.919 131.002 403.066V403.814C131.002 403.961 130.95 404.085 130.848 404.188C130.76 404.276 130.642 404.32 130.496 404.32H127.768V409.974C127.768 410.707 127.892 411.265 128.142 411.646C128.391 412.013 128.802 412.196 129.374 412.196H130.716C130.862 412.196 130.98 412.247 131.068 412.35C131.17 412.438 131.222 412.555 131.222 412.702V413.494C131.222 413.641 131.17 413.765 131.068 413.868C130.98 413.956 130.862 414 130.716 414H129.198ZM133.655 400.426C133.509 400.426 133.384 400.382 133.281 400.294C133.193 400.191 133.149 400.067 133.149 399.92V398.732C133.149 398.585 133.193 398.461 133.281 398.358C133.384 398.255 133.509 398.204 133.655 398.204H135.041C135.188 398.204 135.313 398.255 135.415 398.358C135.518 398.461 135.569 398.585 135.569 398.732V399.92C135.569 400.067 135.518 400.191 135.415 400.294C135.313 400.382 135.188 400.426 135.041 400.426H133.655ZM133.831 414C133.685 414 133.56 413.956 133.457 413.868C133.369 413.765 133.325 413.641 133.325 413.494V403.066C133.325 402.919 133.369 402.802 133.457 402.714C133.56 402.611 133.685 402.56 133.831 402.56H134.887C135.034 402.56 135.151 402.611 135.239 402.714C135.342 402.802 135.393 402.919 135.393 403.066V413.494C135.393 413.641 135.342 413.765 135.239 413.868C135.151 413.956 135.034 414 134.887 414H133.831ZM143.339 414.22C141.726 414.22 140.472 413.765 139.577 412.856C138.697 411.947 138.228 410.737 138.169 409.226L138.147 408.28L138.169 407.334C138.228 405.838 138.705 404.635 139.599 403.726C140.494 402.802 141.741 402.34 143.339 402.34C144.938 402.34 146.185 402.802 147.079 403.726C147.974 404.635 148.451 405.838 148.509 407.334C148.524 407.495 148.531 407.811 148.531 408.28C148.531 408.749 148.524 409.065 148.509 409.226C148.451 410.737 147.974 411.947 147.079 412.856C146.199 413.765 144.953 414.22 143.339 414.22ZM143.339 412.526C144.263 412.526 144.989 412.233 145.517 411.646C146.06 411.059 146.353 410.216 146.397 409.116C146.412 408.969 146.419 408.691 146.419 408.28C146.419 407.869 146.412 407.591 146.397 407.444C146.353 406.344 146.06 405.501 145.517 404.914C144.989 404.327 144.263 404.034 143.339 404.034C142.415 404.034 141.682 404.327 141.139 404.914C140.597 405.501 140.311 406.344 140.281 407.444L140.259 408.28L140.281 409.116C140.311 410.216 140.597 411.059 141.139 411.646C141.682 412.233 142.415 412.526 143.339 412.526ZM151.792 414C151.646 414 151.521 413.956 151.418 413.868C151.33 413.765 151.286 413.641 151.286 413.494V403.066C151.286 402.919 151.33 402.802 151.418 402.714C151.521 402.611 151.646 402.56 151.792 402.56H152.826C152.973 402.56 153.09 402.611 153.178 402.714C153.281 402.802 153.332 402.919 153.332 403.066V404.034C153.758 403.491 154.256 403.073 154.828 402.78C155.415 402.487 156.141 402.34 157.006 402.34C158.414 402.34 159.507 402.795 160.284 403.704C161.076 404.599 161.472 405.794 161.472 407.29V413.494C161.472 413.641 161.421 413.765 161.318 413.868C161.23 413.956 161.113 414 160.966 414H159.866C159.72 414 159.595 413.956 159.492 413.868C159.404 413.765 159.36 413.641 159.36 413.494V407.4C159.36 406.359 159.104 405.552 158.59 404.98C158.092 404.408 157.366 404.122 156.412 404.122C155.488 404.122 154.755 404.415 154.212 405.002C153.67 405.574 153.398 406.373 153.398 407.4V413.494C153.398 413.641 153.347 413.765 153.244 413.868C153.156 413.956 153.039 414 152.892 414H151.792Z" fill="#373935"/>
<path d="M5.43569 177C5.28902 177 5.16435 176.956 5.06169 176.868C4.97369 176.765 4.92969 176.641 4.92969 176.494V162.128C4.92969 161.967 4.97369 161.842 5.06169 161.754C5.16435 161.651 5.28902 161.6 5.43569 161.6H10.4297C12.6444 161.6 14.2431 162.099 15.2257 163.096C16.2084 164.079 16.7217 165.567 16.7657 167.562C16.7804 167.987 16.7877 168.559 16.7877 169.278C16.7877 169.997 16.7804 170.576 16.7657 171.016C16.7217 172.409 16.4871 173.546 16.0617 174.426C15.6511 175.291 14.9984 175.937 14.1037 176.362C13.2091 176.787 12.0211 177 10.5397 177H5.43569ZM10.4297 175.13C11.4417 175.13 12.2411 174.991 12.8277 174.712C13.4291 174.433 13.8617 173.993 14.1257 173.392C14.4044 172.776 14.5584 171.955 14.5877 170.928C14.6171 170.048 14.6317 169.498 14.6317 169.278C14.6317 169.043 14.6171 168.501 14.5877 167.65C14.5584 166.198 14.2137 165.142 13.5537 164.482C12.8937 163.807 11.8157 163.47 10.3197 163.47H7.08569V175.13H10.4297ZM20.1417 163.426C19.995 163.426 19.8704 163.382 19.7677 163.294C19.6797 163.191 19.6357 163.067 19.6357 162.92V161.732C19.6357 161.585 19.6797 161.461 19.7677 161.358C19.8704 161.255 19.995 161.204 20.1417 161.204H21.5277C21.6744 161.204 21.799 161.255 21.9017 161.358C22.0044 161.461 22.0557 161.585 22.0557 161.732V162.92C22.0557 163.067 22.0044 163.191 21.9017 163.294C21.799 163.382 21.6744 163.426 21.5277 163.426H20.1417ZM20.3177 177C20.171 177 20.0464 176.956 19.9437 176.868C19.8557 176.765 19.8117 176.641 19.8117 176.494V166.066C19.8117 165.919 19.8557 165.802 19.9437 165.714C20.0464 165.611 20.171 165.56 20.3177 165.56H21.3737C21.5204 165.56 21.6377 165.611 21.7257 165.714C21.8284 165.802 21.8797 165.919 21.8797 166.066V176.494C21.8797 176.641 21.8284 176.765 21.7257 176.868C21.6377 176.956 21.5204 177 21.3737 177H20.3177ZM25.6458 177C25.4992 177 25.3745 176.956 25.2718 176.868C25.1838 176.765 25.1398 176.641 25.1398 176.494V166.088C25.1398 165.941 25.1838 165.817 25.2718 165.714C25.3745 165.611 25.4992 165.56 25.6458 165.56H26.6578C26.8045 165.56 26.9292 165.611 27.0318 165.714C27.1345 165.817 27.1858 165.941 27.1858 166.088V167.056C27.7872 166.059 28.8138 165.56 30.2658 165.56H31.1238C31.2705 165.56 31.3878 165.611 31.4758 165.714C31.5785 165.802 31.6298 165.919 31.6298 166.066V166.968C31.6298 167.115 31.5785 167.232 31.4758 167.32C31.3878 167.408 31.2705 167.452 31.1238 167.452H29.8038C29.0118 167.452 28.3885 167.687 27.9338 168.156C27.4792 168.611 27.2518 169.234 27.2518 170.026V176.494C27.2518 176.641 27.2005 176.765 27.0978 176.868C26.9952 176.956 26.8705 177 26.7238 177H25.6458ZM37.8584 177.22C36.3477 177.22 35.1377 176.758 34.2284 175.834C33.3337 174.895 32.8424 173.619 32.7544 172.006L32.7324 171.258L32.7544 170.532C32.8571 168.948 33.3557 167.687 34.2504 166.748C35.1597 165.809 36.3551 165.34 37.8364 165.34C39.4644 165.34 40.7257 165.861 41.6204 166.902C42.5151 167.929 42.9624 169.322 42.9624 171.082V171.456C42.9624 171.603 42.9111 171.727 42.8084 171.83C42.7204 171.918 42.6031 171.962 42.4564 171.962H34.8444V172.16C34.8884 173.113 35.1744 173.927 35.7024 174.602C36.2451 175.262 36.9564 175.592 37.8364 175.592C38.5111 175.592 39.0611 175.46 39.4864 175.196C39.9264 174.917 40.2491 174.631 40.4544 174.338C40.5864 174.162 40.6817 174.059 40.7404 174.03C40.8137 173.986 40.9384 173.964 41.1144 173.964H42.1924C42.3244 173.964 42.4344 174.001 42.5224 174.074C42.6104 174.147 42.6544 174.25 42.6544 174.382C42.6544 174.705 42.4491 175.093 42.0384 175.548C41.6424 176.003 41.0777 176.399 40.3444 176.736C39.6257 177.059 38.7971 177.22 37.8584 177.22ZM40.8724 170.444V170.378C40.8724 169.366 40.5937 168.545 40.0364 167.914C39.4937 167.269 38.7604 166.946 37.8364 166.946C36.9124 166.946 36.1791 167.269 35.6364 167.914C35.1084 168.545 34.8444 169.366 34.8444 170.378V170.444H40.8724ZM50.2129 177.22C48.6436 177.22 47.4116 176.78 46.5169 175.9C45.6369 175.005 45.1676 173.759 45.1089 172.16L45.0869 171.28L45.1089 170.4C45.1676 168.801 45.6369 167.562 46.5169 166.682C47.4116 165.787 48.6436 165.34 50.2129 165.34C51.2689 165.34 52.1636 165.531 52.8969 165.912C53.6303 166.293 54.1729 166.763 54.5249 167.32C54.8916 167.877 55.0896 168.435 55.1189 168.992C55.1336 169.139 55.0896 169.256 54.9869 169.344C54.8843 169.432 54.7596 169.476 54.6129 169.476H53.5569C53.4103 169.476 53.3003 169.447 53.2269 169.388C53.1536 169.329 53.0803 169.212 53.0069 169.036C52.7576 168.332 52.4056 167.833 51.9509 167.54C51.4963 167.232 50.9243 167.078 50.2349 167.078C49.3256 167.078 48.5996 167.364 48.0569 167.936C47.5289 168.493 47.2429 169.351 47.1989 170.51L47.1769 171.302L47.1989 172.05C47.2429 173.223 47.5289 174.089 48.0569 174.646C48.5849 175.203 49.3109 175.482 50.2349 175.482C50.9243 175.482 51.4963 175.335 51.9509 175.042C52.4056 174.734 52.7576 174.228 53.0069 173.524C53.0803 173.348 53.1536 173.231 53.2269 173.172C53.3003 173.099 53.4103 173.062 53.5569 173.062H54.6129C54.7596 173.062 54.8843 173.113 54.9869 173.216C55.0896 173.304 55.1336 173.421 55.1189 173.568C55.0896 174.111 54.8916 174.668 54.5249 175.24C54.1729 175.797 53.6303 176.267 52.8969 176.648C52.1783 177.029 51.2836 177.22 50.2129 177.22ZM62.1976 177C59.8803 177 58.7216 175.709 58.7216 173.128V167.32H57.0056C56.8589 167.32 56.7343 167.276 56.6316 167.188C56.5436 167.085 56.4996 166.961 56.4996 166.814V166.066C56.4996 165.919 56.5436 165.802 56.6316 165.714C56.7343 165.611 56.8589 165.56 57.0056 165.56H58.7216V161.886C58.7216 161.739 58.7656 161.622 58.8536 161.534C58.9563 161.431 59.0809 161.38 59.2276 161.38H60.2616C60.4083 161.38 60.5256 161.431 60.6136 161.534C60.7163 161.622 60.7676 161.739 60.7676 161.886V165.56H63.4956C63.6423 165.56 63.7596 165.611 63.8476 165.714C63.9503 165.802 64.0016 165.919 64.0016 166.066V166.814C64.0016 166.961 63.9503 167.085 63.8476 167.188C63.7596 167.276 63.6423 167.32 63.4956 167.32H60.7676V172.974C60.7676 173.707 60.8923 174.265 61.1416 174.646C61.3909 175.013 61.8016 175.196 62.3736 175.196H63.7156C63.8623 175.196 63.9796 175.247 64.0676 175.35C64.1703 175.438 64.2216 175.555 64.2216 175.702V176.494C64.2216 176.641 64.1703 176.765 64.0676 176.868C63.9796 176.956 63.8623 177 63.7156 177H62.1976ZM66.6554 163.426C66.5087 163.426 66.384 163.382 66.2814 163.294C66.1934 163.191 66.1494 163.067 66.1494 162.92V161.732C66.1494 161.585 66.1934 161.461 66.2814 161.358C66.384 161.255 66.5087 161.204 66.6554 161.204H68.0414C68.188 161.204 68.3127 161.255 68.4154 161.358C68.518 161.461 68.5694 161.585 68.5694 161.732V162.92C68.5694 163.067 68.518 163.191 68.4154 163.294C68.3127 163.382 68.188 163.426 68.0414 163.426H66.6554ZM66.8314 177C66.6847 177 66.56 176.956 66.4574 176.868C66.3694 176.765 66.3254 176.641 66.3254 176.494V166.066C66.3254 165.919 66.3694 165.802 66.4574 165.714C66.56 165.611 66.6847 165.56 66.8314 165.56H67.8874C68.034 165.56 68.1514 165.611 68.2394 165.714C68.342 165.802 68.3934 165.919 68.3934 166.066V176.494C68.3934 176.641 68.342 176.765 68.2394 176.868C68.1514 176.956 68.034 177 67.8874 177H66.8314ZM76.3395 177.22C74.7262 177.22 73.4722 176.765 72.5775 175.856C71.6975 174.947 71.2282 173.737 71.1695 172.226L71.1475 171.28L71.1695 170.334C71.2282 168.838 71.7048 167.635 72.5995 166.726C73.4942 165.802 74.7408 165.34 76.3395 165.34C77.9382 165.34 79.1848 165.802 80.0795 166.726C80.9742 167.635 81.4508 168.838 81.5095 170.334C81.5242 170.495 81.5315 170.811 81.5315 171.28C81.5315 171.749 81.5242 172.065 81.5095 172.226C81.4508 173.737 80.9742 174.947 80.0795 175.856C79.1995 176.765 77.9528 177.22 76.3395 177.22ZM76.3395 175.526C77.2635 175.526 77.9895 175.233 78.5175 174.646C79.0602 174.059 79.3535 173.216 79.3975 172.116C79.4122 171.969 79.4195 171.691 79.4195 171.28C79.4195 170.869 79.4122 170.591 79.3975 170.444C79.3535 169.344 79.0602 168.501 78.5175 167.914C77.9895 167.327 77.2635 167.034 76.3395 167.034C75.4155 167.034 74.6822 167.327 74.1395 167.914C73.5968 168.501 73.3108 169.344 73.2815 170.444L73.2595 171.28L73.2815 172.116C73.3108 173.216 73.5968 174.059 74.1395 174.646C74.6822 175.233 75.4155 175.526 76.3395 175.526ZM84.7923 177C84.6456 177 84.521 176.956 84.4183 176.868C84.3303 176.765 84.2863 176.641 84.2863 176.494V166.066C84.2863 165.919 84.3303 165.802 84.4183 165.714C84.521 165.611 84.6456 165.56 84.7923 165.56H85.8263C85.973 165.56 86.0903 165.611 86.1783 165.714C86.281 165.802 86.3323 165.919 86.3323 166.066V167.034C86.7576 166.491 87.2563 166.073 87.8283 165.78C88.415 165.487 89.141 165.34 90.0063 165.34C91.4143 165.34 92.507 165.795 93.2843 166.704C94.0763 167.599 94.4723 168.794 94.4723 170.29V176.494C94.4723 176.641 94.421 176.765 94.3183 176.868C94.2303 176.956 94.113 177 93.9663 177H92.8663C92.7196 177 92.595 176.956 92.4923 176.868C92.4043 176.765 92.3603 176.641 92.3603 176.494V170.4C92.3603 169.359 92.1036 168.552 91.5903 167.98C91.0916 167.408 90.3656 167.122 89.4123 167.122C88.4883 167.122 87.755 167.415 87.2123 168.002C86.6696 168.574 86.3983 169.373 86.3983 170.4V176.494C86.3983 176.641 86.347 176.765 86.2443 176.868C86.1563 176.956 86.039 177 85.8923 177H84.7923Z" fill="#373935"/>
</svg>
