<svg xmlns="http://www.w3.org/2000/svg" width="35.804" height="35.865" viewBox="0 0 35.804 35.865"><path d="M33.48.135c-.135,0-.18.09-.27.135L16.335,12.24a3.143,3.143,0,0,0-.585.72l-.585,1.125a10.325,10.325,0,0,1,6.75,6.75l1.125-.585a2.938,2.938,0,0,0,.72-.585L35.73,2.79c.135-.225.18-.4,0-.585L33.75.225A.389.389,0,0,0,33.48.09ZM11.97,18a5.945,5.945,0,0,0-5.895,6.03,12.067,12.067,0,0,1-6.03,10.4,12.374,12.374,0,0,0,6.03,1.53,11.936,11.936,0,0,0,11.97-11.97,6.059,6.059,0,0,0-6.03-6.03Z" transform="translate(-0.045 -0.09)" fill="#8c80f8"/></svg>