<svg width="228" height="228" viewBox="0 0 228 228" fill="none" xmlns="http://www.w3.org/2000/svg">
<path fill-rule="evenodd" clip-rule="evenodd" d="M0 114V20C0 8.9543 8.95431 0 20 0H208C219.046 0 228 8.95431 228 20V208C228 219.046 219.046 228 208 228H20C8.95431 228 0 219.046 0 208V114Z" fill="#007ACC"/>
<path fill-rule="evenodd" clip-rule="evenodd" d="M49.9863 114.39V123.686H79.6182V208.054H100.659V123.686H130.291V114.557C130.291 109.436 130.291 105.261 130.068 105.149C130.068 104.982 111.996 104.927 90.0459 104.927L50.1533 105.094V114.445L49.9863 114.39ZM183.19 104.871C188.998 106.244 193.451 108.86 197.44 113.017C199.556 115.299 202.691 119.288 202.914 120.309C202.914 120.643 193.062 127.322 187.068 131.033C186.846 131.2 185.937 130.235 185.009 128.751C182.04 124.539 179.016 122.702 174.284 122.368C167.438 121.904 162.892 125.504 162.892 131.479C162.892 133.297 163.226 134.336 163.912 135.802C165.452 138.938 168.31 140.812 177.142 144.689C193.451 151.703 200.521 156.323 204.788 162.929C209.631 170.332 210.707 181.966 207.46 190.687C203.805 200.205 194.917 206.644 182.207 208.759C178.218 209.445 169.089 209.334 164.821 208.592C155.711 206.885 146.972 202.32 141.628 196.457C139.513 194.175 135.468 188.07 135.709 187.681L137.88 186.308L146.434 181.354L152.872 177.587L154.356 179.591C156.23 182.56 160.461 186.549 162.91 187.922C170.313 191.744 180.24 191.225 185.139 186.79C187.254 184.86 188.163 182.801 188.163 179.943C188.163 177.327 187.755 176.121 186.456 174.136C184.638 171.631 180.982 169.571 170.722 165.025C158.921 160.016 153.911 156.824 149.235 151.907C146.563 148.939 144.114 144.318 142.964 140.515C142.11 137.212 141.832 129.122 142.63 125.856C145.079 114.464 153.688 106.485 166.009 104.203C169.998 103.405 179.405 103.739 183.339 104.778L183.19 104.871Z" fill="white"/>
</svg>
