<svg width="180" height="214" viewBox="0 0 180 214" fill="none" xmlns="http://www.w3.org/2000/svg">
<g clip-path="url(#clip0_62_352)">
<path d="M9.21375 202.012C5.55469 202.012 4.49086 199.882 4.49086 196.689C4.49086 195.626 4.62445 194.425 4.78898 193.161C5.59055 187.641 7.54734 184.482 12.2702 184.482C15.4645 184.482 17.022 185.911 17.022 188.506V189.771H20.1909C20.2261 189.771 20.2261 188.606 20.2261 188.341C20.2261 184.55 17.9304 180.954 12.2752 180.954C4.5907 180.954 1.43086 185.129 0.266484 193.312C0.0998438 194.411 0 195.436 0 196.53C0 201.353 1.89773 205.741 8.68289 205.741C13.8382 205.741 16.9003 203.227 18.6954 200.133L15.6677 198.094C13.706 201.189 11.5755 202.012 9.21375 202.012V202.012ZM30.0052 186.777C23.85 186.777 21.1908 189.935 20.2929 196.221C20.1875 196.949 20.1311 197.683 20.1241 198.418C20.1241 202.475 22.0205 205.703 27.2749 205.703C33.4301 205.703 36.1252 202.409 37.023 196.221C37.1229 195.424 37.1897 194.692 37.1897 193.961C37.1911 189.837 35.2294 186.777 30.0052 186.777V186.777ZM32.5666 196.223C31.9008 200.782 30.472 202.179 27.7755 202.179C25.6148 202.179 24.551 201.28 24.551 198.586C24.551 197.92 24.6185 197.122 24.7507 196.223C25.4166 191.7 26.7469 190.303 29.4743 190.303C31.6702 190.303 32.7663 191.201 32.7663 193.928C32.7663 194.593 32.6988 195.359 32.5666 196.223ZM52.662 181.285L51.6319 187.391C51.5658 187.922 51.5995 187.746 51.8006 188.245C50.8359 187.514 49.1048 187.03 47.9405 187.03C42.4181 187.03 39.3258 189.529 38.3288 196.515C38.2123 197.252 38.1566 197.998 38.1621 198.745C38.1621 203.836 41.1553 205.734 45.1793 205.734C46.878 205.734 48.5402 205.769 49.8361 204.673L50.1673 206.742H53.3616L57.0867 181.285H52.662V181.285ZM49.5021 201.213C48.0066 202.108 46.5441 202.311 45.6462 202.311C43.2176 202.311 42.5524 201.046 42.5524 199.018C42.5524 198.252 42.6523 197.357 42.7866 196.389C43.5502 191.101 45.2475 190.168 47.4434 190.168C48.8721 190.168 49.969 190.402 51.0026 190.969L49.5021 201.213V201.213ZM66.8011 186.777C60.712 186.777 57.8538 189.669 56.8877 196.221C56.7865 197.021 56.7197 197.786 56.7197 198.517C56.7197 203.008 59.0161 205.703 64.0702 205.703C67.9957 205.703 70.9256 204.072 72.488 201.078L69.1277 199.714C68.1645 201.177 66.8672 202.175 64.5715 202.175C62.1105 202.175 61.1121 201.513 61.1121 199.317C61.1121 198.884 61.1459 198.255 61.2127 198.255H73.2192C73.388 196.557 73.5848 195.358 73.5848 194.363C73.5848 191.038 72.322 186.776 66.8011 186.776V186.777ZM69.0954 194.862H61.7773C62.5106 193.165 63.739 190.538 66.2681 190.538C68.2298 190.538 69.1959 191.685 69.1959 193.647C69.1938 193.98 69.1636 194.862 69.0954 194.862V194.862ZM86.3859 186.376L86.7846 182.982H77.4028L77.0055 186.376H79.4665L76.8073 203.347H74.3428L73.9462 206.742H83.3259L83.7267 203.347H81.2637L83.9236 186.376H86.3859ZM105.448 191.467L106.646 188.073H103.42L101.093 188.554C99.7952 187.724 98.0318 187.101 96.3703 187.101C91.6116 187.101 87.5552 189.399 87.5552 194.622C87.5552 196.087 88.0868 197.27 88.7175 198.07C87.7219 198.6 86.8563 199.49 86.8563 200.689C86.8563 201.221 87.0546 201.765 87.4554 202.263C85.4578 203.463 84.2309 205.45 84.2309 207.777C84.2309 212.27 88.92 213.228 92.5123 213.228C97.0355 213.228 102.426 212.195 102.426 206.44C102.426 204.478 101.195 202.945 97.6359 202.28L91.2164 201.08C90.4852 200.946 90.3185 200.713 90.3185 200.381C90.3185 199.882 90.6209 199.617 91.1173 199.617L91.5504 199.683C92.4152 199.882 93.4137 199.984 94.4438 199.984C99.0689 199.984 103.193 197.987 103.193 192.798C103.193 192.065 103.061 191.569 102.728 190.77C103.293 191.037 104.026 191.469 104.323 191.469H105.448V191.467V191.467ZM96.3021 205.237C97.5649 205.471 97.9966 205.935 97.9966 206.767C97.9966 209.462 95.1026 209.795 93.008 209.795C89.8144 209.795 88.6177 209.031 88.6177 207.333C88.6177 205.835 89.0487 205.138 90.0485 204.072L96.3021 205.237ZM94.9359 196.523C93.0066 196.523 91.942 195.826 91.942 194.161C91.942 191.7 93.3729 190.269 95.8676 190.269C97.8638 190.269 98.8291 191.101 98.8291 192.729C98.8291 195.191 97.4306 196.523 94.9359 196.523V196.523ZM117.265 186.777C115.402 186.777 113.74 187.691 111.677 189.319L111.378 188.073H107.717L105.157 206.741H109.581L111.511 192.585C112.809 191.786 114.404 190.628 115.768 190.628C117.43 190.628 118.031 191.43 118.031 192.959C118.031 193.326 117.996 194.411 117.929 194.809L116.301 206.741H120.726L122.354 194.712C122.421 194.15 122.487 193.222 122.487 192.691C122.489 189.527 120.99 186.777 117.265 186.777V186.777ZM130.892 202.065L130.925 201.608L132.853 188.073H125.501L125.038 191.467H128.263C127.996 191.467 127.83 191.765 127.798 192.033L126.467 201.047C126.401 201.48 126.368 202.383 126.368 202.747C126.368 205.075 127.631 206.742 130.224 206.742H132.487L132.986 203.347H131.557C131.056 203.347 130.892 202.463 130.892 202.065V202.065ZM133.751 181.285H129.427C129.161 181.285 129.161 180.305 129.128 180.638L128.528 185.42C128.493 185.721 128.493 186.377 128.76 186.377H133.086C133.353 186.377 133.353 185.214 133.385 184.911L133.985 181.22C134.019 180.887 134.019 181.285 133.751 181.285ZM142.773 202.178C141.677 202.178 141.144 201.712 141.144 200.715L141.178 200.647L142.575 191.467H147.63L149.16 188.073H143.04L144.07 180.604L139.415 182.093L138.582 188.073H135.888L135.423 191.467H138.549C138.251 193.165 137.95 192.064 137.918 192.397L136.72 200.447C136.654 200.814 136.654 201.08 136.654 201.411C136.654 204.571 138.982 205.754 141.779 205.754C144.372 205.754 146.468 204.997 148.099 203.631L146.036 201.092C145.002 201.723 144.304 202.178 142.773 202.178V202.178ZM159.006 186.777C152.919 186.777 150.059 189.669 149.093 196.221C148.994 197.021 148.927 197.786 148.927 198.517C148.927 203.008 151.222 205.703 156.277 205.703C160.203 205.703 163.133 204.072 164.694 201.078L161.335 199.714C160.372 201.177 159.073 202.175 156.776 202.175C154.317 202.175 153.317 201.513 153.317 199.317C153.317 198.884 153.353 198.255 153.42 198.255H165.427C165.593 196.557 165.793 195.358 165.793 194.363C165.793 191.038 164.529 186.776 159.006 186.776V186.777ZM161.303 194.862H153.984C154.716 193.165 155.945 190.538 158.475 190.538C160.437 190.538 161.403 191.685 161.403 193.647C161.401 193.98 161.369 194.862 161.303 194.862V194.862ZM178.035 186.776C176.438 186.776 174.941 187.691 173.443 189.119L173.178 188.073H169.52L166.958 206.741H171.416L173.377 192.285C174.542 191.588 175.873 190.993 177.137 190.993C177.936 190.993 178.7 190.865 179.431 190.965L180 187.108C179.331 186.975 178.666 186.777 178.035 186.777V186.776ZM65.0672 167.913C54.9984 163.561 45.5766 152.499 45.5541 141.181C45.5266 128.841 53.3468 118.365 63.0731 111.48C61.9038 115.897 61.2661 119.938 64.163 123.89C66.8559 127.564 71.5725 129.349 76.0261 128.38C86.4323 126.102 86.9098 114.662 80.7405 107.997C74.6409 101.397 68.7403 93.9417 71.062 84.3701C72.2243 79.572 75.1704 75.0776 78.9026 71.865C76.0338 79.4039 84.1859 86.8387 89.557 90.5421C98.8741 96.9673 109.097 101.823 117.664 109.355C126.675 117.271 133.329 127.974 131.986 140.387C130.53 153.842 119.838 163.2 107.845 167.925C133.187 162.331 159.372 142.663 159.909 114.557C160.353 91.4351 144.491 73.6404 124.843 63.4528L123.816 62.8924C124.355 64.2009 124.532 65.314 124.511 66.3103C124.687 65.5755 124.807 64.8204 124.841 64.0413C124.836 64.9669 124.715 65.8881 124.481 66.7835L124.511 66.3103C124.22 67.5379 123.728 68.7092 123.057 69.7774L123.345 69.4673C119.425 75.9691 108.813 77.381 103.57 70.6486C95.1427 59.8191 103.747 48.143 104.951 36.675C106.457 22.3024 97.444 8.34961 86.2685 0C92.4237 9.95695 84.3145 23.13 77.8268 30.4945C71.5359 37.6334 63.8852 43.5937 56.9405 50.0801C49.4803 57.0466 42.3084 64.3852 36.1765 72.5618C23.9126 88.9277 16.4046 109.511 21.922 129.928C27.4359 150.332 45.1097 163.32 65.0679 167.913L65.0672 167.913Z" fill="#EE4323"/>
</g>
<defs>
<clipPath id="clip0_62_352">
<rect width="180" height="213.777" fill="white"/>
</clipPath>
</defs>
</svg>
