<svg width="228" height="228" viewBox="0 0 228 228" fill="none" xmlns="http://www.w3.org/2000/svg">
<g clip-path="url(#clip0_300_536)">
<path fill-rule="evenodd" clip-rule="evenodd" d="M208 7L190.874 198.869L113.887 220.211L37.1083 198.904L20 7H208Z" fill="#E44D26"/>
<path fill-rule="evenodd" clip-rule="evenodd" d="M113.991 203.901L176.213 186.654L190.84 22.6855H113.991V203.901Z" fill="#F16529"/>
<path fill-rule="evenodd" clip-rule="evenodd" d="M80.7118 69.7591H114.009V46.231H54.98L55.5352 52.5468L61.3132 117.405H113.974V93.8599H82.8633L80.7118 69.7591ZM86.0039 129.17H62.3889L65.6857 166.128L113.905 179.505L114.009 179.471V154.988L113.905 155.023L87.6869 147.944L86.0039 129.17Z" fill="#EBEBEB"/>
<path fill-rule="evenodd" clip-rule="evenodd" d="M113.922 117.406H142.898L140.174 147.926L113.922 155.006V179.488L162.176 166.111L162.523 162.137L168.058 100.176L168.63 93.8602H113.922V117.406ZM113.922 69.7074V69.7594H170.764L171.233 64.4673L172.309 52.5297L172.864 46.2139H113.922V69.7074Z" fill="white"/>
</g>
<defs>
<clipPath id="clip0_300_536">
<rect width="188" height="213.211" fill="white" transform="translate(20 7)"/>
</clipPath>
</defs>
</svg>
