<svg width="24" height="24" viewBox="0 0 24 24" fill="none" xmlns="http://www.w3.org/2000/svg">
<path d="M10.7115 1.79879L7.78254 7.73879L1.22854 8.69479C0.963604 8.73366 0.714813 8.84583 0.510265 9.01863C0.305717 9.19143 0.153559 9.41799 0.0709759 9.6727C-0.0116072 9.92742 -0.0213247 10.2002 0.0429188 10.4601C0.107162 10.7201 0.242808 10.9569 0.434538 11.1438L5.17654 15.7648L4.05554 22.2918C4.01059 22.5555 4.04024 22.8265 4.14116 23.0742C4.24207 23.322 4.41023 23.5366 4.62664 23.6938C4.84305 23.8511 5.09911 23.9447 5.36591 23.9641C5.63271 23.9836 5.89963 23.928 6.13654 23.8038L11.9995 20.7208L17.8625 23.8028C18.0995 23.9266 18.3663 23.9818 18.6329 23.9622C18.8996 23.9426 19.1554 23.849 19.3717 23.6918C19.588 23.5347 19.7561 23.3203 19.8571 23.0727C19.9582 22.8252 19.9881 22.5544 19.9435 22.2908L18.8225 15.7638L23.5645 11.1428C23.7563 10.9559 23.8919 10.7191 23.9562 10.4591C24.0204 10.1992 24.0107 9.92642 23.9281 9.67171C23.8455 9.41699 23.6934 9.19043 23.4888 9.01763C23.2843 8.84483 23.0355 8.73266 22.7705 8.69379L16.2165 7.73779L13.2865 1.79879C13.1676 1.55893 12.9841 1.35705 12.7566 1.21592C12.5291 1.07478 12.2667 1 11.999 1C11.7313 1 11.4689 1.07478 11.2415 1.21592C11.014 1.35705 10.8304 1.55893 10.7115 1.79879V1.79879Z" fill="#C5C6CA"/>
<g clip-path="url(#clip0_74_28)">
<path d="M10.7115 1.79879L7.78254 7.73879L1.22854 8.69479C0.963604 8.73366 0.714813 8.84583 0.510265 9.01863C0.305717 9.19143 0.153559 9.41799 0.0709759 9.6727C-0.0116072 9.92742 -0.0213247 10.2002 0.0429188 10.4601C0.107162 10.7201 0.242808 10.9569 0.434538 11.1438L5.17654 15.7648L4.05554 22.2918C4.01059 22.5555 4.04024 22.8265 4.14116 23.0742C4.24207 23.322 4.41023 23.5366 4.62664 23.6938C4.84305 23.8511 5.09911 23.9447 5.36591 23.9641C5.63271 23.9836 5.89963 23.928 6.13654 23.8038L11.9995 20.7208L17.8625 23.8028C18.0995 23.9266 18.3663 23.9818 18.6329 23.9622C18.8996 23.9426 19.1554 23.849 19.3717 23.6918C19.588 23.5347 19.7561 23.3203 19.8571 23.0727C19.9582 22.8252 19.9881 22.5544 19.9435 22.2908L18.8225 15.7638L23.5645 11.1428C23.7563 10.9559 23.8919 10.7191 23.9562 10.4591C24.0204 10.1992 24.0107 9.92642 23.9281 9.67171C23.8455 9.41699 23.6934 9.19043 23.4888 9.01763C23.2843 8.84483 23.0355 8.73266 22.7705 8.69379L16.2165 7.73779L13.2865 1.79879C13.1676 1.55893 12.9841 1.35705 12.7566 1.21592C12.5291 1.07478 12.2667 1 11.999 1C11.7313 1 11.4689 1.07478 11.2415 1.21592C11.014 1.35705 10.8304 1.55893 10.7115 1.79879V1.79879Z" fill="#8C80F8"/>
<mask id="mask0_74_28" style="mask-type:alpha" maskUnits="userSpaceOnUse" x="0" y="1" width="24" height="23">
<path d="M10.7106 1.79879L7.78156 7.73879L1.22756 8.69479C0.962627 8.73366 0.713837 8.84583 0.509288 9.01863C0.30474 9.19143 0.152582 9.41799 0.0699993 9.6727C-0.0125837 9.92742 -0.0223013 10.2002 0.0419422 10.4601C0.106186 10.7201 0.241831 10.9569 0.433561 11.1438L5.17556 15.7648L4.05456 22.2918C4.00961 22.5555 4.03927 22.8265 4.14018 23.0742C4.2411 23.322 4.40925 23.5366 4.62566 23.6938C4.84208 23.8511 5.09813 23.9447 5.36493 23.9641C5.63173 23.9836 5.89865 23.928 6.13556 23.8038L11.9986 20.7208L17.8616 23.8028C18.0985 23.9266 18.3653 23.9818 18.6319 23.9622C18.8986 23.9426 19.1544 23.849 19.3707 23.6918C19.587 23.5347 19.7551 23.3203 19.8562 23.0727C19.9572 22.8252 19.9871 22.5544 19.9426 22.2908L18.8216 15.7638L23.5636 11.1428C23.7553 10.9559 23.8909 10.7191 23.9552 10.4591C24.0194 10.1992 24.0097 9.92642 23.9271 9.67171C23.8445 9.41699 23.6924 9.19043 23.4878 9.01763C23.2833 8.84483 23.0345 8.73266 22.7696 8.69379L16.2156 7.73779L13.2856 1.79879C13.1667 1.55893 12.9831 1.35705 12.7556 1.21592C12.5282 1.07478 12.2658 1 11.9981 1C11.7304 1 11.468 1.07478 11.2405 1.21592C11.013 1.35705 10.8295 1.55893 10.7106 1.79879V1.79879Z" fill="#C5C6CA"/>
</mask>
<g mask="url(#mask0_74_28)">
<rect x="12" y="-9" width="27" height="38" fill="#D9D9D9"/>
</g>
</g>
<defs>
<clipPath id="clip0_74_28">
<rect width="24" height="24" fill="white"/>
</clipPath>
</defs>
</svg>
