<svg width="228" height="228" viewBox="0 0 228 228" fill="none" xmlns="http://www.w3.org/2000/svg">
<path fill-rule="evenodd" clip-rule="evenodd" d="M0 20C0 8.95431 8.95431 0 20 0H208C219.046 0 228 8.95431 228 20V208C228 219.046 219.046 228 208 228H20C8.95431 228 0 219.046 0 208V20Z" fill="#F7DF1E"/>
<path fill-rule="evenodd" clip-rule="evenodd" d="M59.9502 190.538L77.3916 179.98C80.75 185.955 83.8115 191.002 91.1592 191.002C98.1914 191.002 102.645 188.256 102.645 177.531V104.667H124.075V177.828C124.075 200.02 111.068 210.113 92.0869 210.113C74.9424 210.113 64.9971 201.244 59.9502 190.538ZM135.709 188.237L153.15 178.144C157.752 185.64 163.708 191.15 174.266 191.15C183.135 191.15 188.813 186.716 188.813 180.593C188.813 173.245 183.005 170.647 173.208 166.361L167.846 164.061C152.39 157.474 142.129 149.217 142.129 131.775C142.129 115.707 154.375 103.461 173.505 103.461C187.124 103.461 196.921 108.211 203.953 120.605L187.272 131.312C183.599 124.725 179.628 122.127 173.505 122.127C167.233 122.127 163.244 126.098 163.244 131.312C163.244 137.731 167.215 140.348 176.399 144.318L181.762 146.619C199.982 154.431 210.225 162.391 210.225 180.296C210.225 199.574 195.065 210.132 174.711 210.132C154.839 210.132 141.98 200.632 135.709 188.237Z" fill="black"/>
</svg>
