<svg xmlns="http://www.w3.org/2000/svg" width="203.19" height="75" viewBox="0 0 203.19 75"><g transform="translate(-5.1 -8.5)"><path d="M-8848.574-4400.5h-53.638a10.7,10.7,0,0,1-10.688-10.687v-53.627a10.7,10.7,0,0,1,10.688-10.686h53.638a10.7,10.7,0,0,1,10.688,10.686v53.627A10.7,10.7,0,0,1-8848.574-4400.5Zm-19.363-24.382a3.277,3.277,0,0,1,1.88.508,3.028,3.028,0,0,1,1.139,1.643c.8,2.465,1.842,4.921,2.851,7.3l0,.009c.075.178.151.356.226.533.236.511.817,1.248,1.249,1.248,1.357.033,2.793.049,4.651.049.786,0,1.58,0,2.349-.005.718,0,1.611-.005,2.479-.005a.524.524,0,0,0,.429-.219.581.581,0,0,0,.079-.522c-.645-1.732-1.315-3.5-1.854-4.914l-.047-.124c-.589-1.552-1.2-3.157-1.806-4.791a.546.546,0,0,1,.074-.487.425.425,0,0,1,.343-.186.45.45,0,0,1,.089.009h8.349a.518.518,0,0,0,.428-.218.579.579,0,0,0,.08-.522c-.367-1-.743-1.992-1.077-2.868v0c-.646-1.7-1.256-3.31-1.809-4.967-.417-1.327-1.056-1.841-2.277-1.841-.083,0-.169,0-.259.008-2.091.117-23.815.156-29.178.156a.553.553,0,0,0-.469.251.507.507,0,0,0-.042.489q.268.675.53,1.335c1,2.529,1.951,4.917,2.981,7.245.4.923,1.831.926,2.878.929h.016c.181,0,.353,0,.5.006.712.017,1.4.026,2.051.026,1.029,0,2-.022,2.9-.065.091,0,.178-.005.258-.005Zm-9.908-44.124c-.721,0-1.451.02-2.17.059a3.2,3.2,0,0,0-2.5.858,5.962,5.962,0,0,0-.936,1.915l-.01.026c-.062.172-.123.349-.187.517-.2.5-.4,1.024-.594,1.529l-.042.111-.063.16c-.193.5-.393,1.014-.588,1.515-.831,2.259-1.737,4.6-2.536,6.669-.984,2.529-1.974,5.119-2.932,7.622l-.035.093c-.689,1.805-1.424,3.724-2.143,5.586-.839,2.223-1.711,4.474-2.555,6.65l-.016.039c-.839,2.162-1.705,4.4-2.541,6.609-1.29,3.423-2.629,6.886-3.925,10.236l-.038.1q-.574,1.483-1.147,2.967a12.589,12.589,0,0,0-.507,1.6.414.414,0,0,0,.072.363.454.454,0,0,0,.357.183c.6,0,1.2,0,1.774,0h.117c.562,0,1.2,0,1.815,0,1.589,0,3.467-.011,5.343-.085a2.356,2.356,0,0,0,1.676-1.248c1.128-2.721,2.191-5.516,3.16-8.307a2.8,2.8,0,0,1,.771-1.267,2.008,2.008,0,0,1,1.362-.417c.077,0,.163,0,.247.007.673.044,1.4.064,2.3.064.524,0,1.065-.006,1.544-.012h.033c.537-.007,1.094-.014,1.663-.014a.514.514,0,0,0,.362-.256.4.4,0,0,0,.027-.367c-1.235-3.071-2.227-5.6-3.12-7.957a3.442,3.442,0,0,1-.311-2.262c1.628-4.422,3.309-8.747,5.088-13.326l.12-.307c.45-1.16.916-2.36,1.383-3.566a.453.453,0,0,1,.425-.292.4.4,0,0,1,.395.292c.317.874.764,2.142,1.2,3.369l.007.016c1.556,4.415,3.687,10.459,3.987,10.459,3.12.039,6.669.039,10.1.039a.47.47,0,0,0,.39-.211.388.388,0,0,0,.038-.374c-1.114-3.029-3.751-10.78-5.87-17.008l-.007-.021-.029-.082c-1.56-4.591-2.911-8.555-3.144-9.137a6.735,6.735,0,0,0-1.054-1.872c-.961-1.071-2.491-1.129-4.109-1.191h-.006l-.448-.018c-.734-.042-1.476-.062-2.2-.062Z" transform="translate(8918 4484)" fill="#373935"/><g transform="translate(87.76 22.926)"><g transform="translate(0)"><path d="M230.755-315.091l-.312-2.848h-.156a8.386,8.386,0,0,1-6.944,3.355c-4.6,0-6.944-3.238-6.944-6.515,0-5.461,4.876-8.465,13.614-8.426v-.468c0-1.872-.507-5.227-5.149-5.227a11.422,11.422,0,0,0-5.89,1.677l-.936-2.731a14.185,14.185,0,0,1,7.451-2.028c6.944,0,8.621,4.72,8.621,9.284v8.465a28.776,28.776,0,0,0,.39,5.422h-3.745Zm-.624-11.547c-4.486-.078-9.6.7-9.6,5.11a3.671,3.671,0,0,0,3.9,3.94,5.575,5.575,0,0,0,5.461-3.784,3.963,3.963,0,0,0,.234-1.326Z" transform="translate(-216.4 346.649)" fill="#373935"/><path d="M273.9-356.228h-9.6V-359.7h23.367v3.472h-9.635v28.087H273.9Z" transform="translate(-245.615 359.7)" fill="#373935"/><path d="M324.04-325.539c.078,5.578,3.667,7.88,7.763,7.88a14.814,14.814,0,0,0,6.28-1.17l.7,2.965a18.207,18.207,0,0,1-7.529,1.4c-6.983,0-11.157-4.6-11.157-11.43s4.018-12.21,10.611-12.21c7.412,0,9.362,6.514,9.362,10.688a10.612,10.612,0,0,1-.156,1.911H324.04Zm12.093-2.926c.039-2.614-1.092-6.71-5.7-6.71-4.174,0-6.007,3.823-6.319,6.71Z" transform="translate(-279.648 346.526)" fill="#373935"/><path d="M394.155-315.091l-.312-2.848h-.156a8.386,8.386,0,0,1-6.944,3.355c-4.6,0-6.944-3.238-6.944-6.515,0-5.461,4.876-8.465,13.614-8.426v-.468c0-1.872-.507-5.227-5.149-5.227a11.422,11.422,0,0,0-5.89,1.677l-.936-2.731a14.185,14.185,0,0,1,7.451-2.028c6.944,0,8.621,4.72,8.621,9.284v8.465a28.778,28.778,0,0,0,.39,5.422h-3.745Zm-.585-11.547c-4.486-.078-9.6.7-9.6,5.11a3.671,3.671,0,0,0,3.9,3.94,5.575,5.575,0,0,0,5.461-3.784,3.964,3.964,0,0,0,.234-1.326Z" transform="translate(-316.059 346.649)" fill="#373935"/><path d="M442-331.536c0-2.341-.039-4.252-.2-6.124h3.589l.2,3.667h.156a7.785,7.785,0,0,1,7.1-4.174,6.685,6.685,0,0,1,6.4,4.525h.078a9.6,9.6,0,0,1,2.536-2.965,7.81,7.81,0,0,1,4.993-1.6c3,0,7.451,1.95,7.451,9.83v13.341h-4.018v-12.834c0-4.369-1.6-6.983-4.915-6.983a5.322,5.322,0,0,0-4.876,3.745,6.585,6.585,0,0,0-.312,2.067v14h-4.018V-328.61c0-3.589-1.6-6.241-4.72-6.241a5.652,5.652,0,0,0-5.11,4.135,5.818,5.818,0,0,0-.312,2.029v13.653H442Z" transform="translate(-353.873 346.593)" fill="#373935"/></g><path d="M-305.067-18.98a.424.424,0,0,1-.1.123.23.23,0,0,1-.142.039.378.378,0,0,1-.216-.093,3.434,3.434,0,0,0-.312-.2,2.527,2.527,0,0,0-.453-.2,1.95,1.95,0,0,0-.642-.093,1.9,1.9,0,0,0-.628.1,1.336,1.336,0,0,0-.456.259,1.065,1.065,0,0,0-.276.385,1.222,1.222,0,0,0-.093.478.883.883,0,0,0,.161.543,1.388,1.388,0,0,0,.426.369,3.263,3.263,0,0,0,.6.265q.336.112.688.234t.688.27a2.419,2.419,0,0,1,.6.38,1.731,1.731,0,0,1,.426.563,1.873,1.873,0,0,1,.161.819,2.642,2.642,0,0,1-.175.964,2.224,2.224,0,0,1-.511.784,2.389,2.389,0,0,1-.825.524,3.034,3.034,0,0,1-1.111.191,3.394,3.394,0,0,1-1.384-.276,3.248,3.248,0,0,1-1.068-.745l.306-.5a.4.4,0,0,1,.107-.1.25.25,0,0,1,.139-.039.435.435,0,0,1,.262.123,4.366,4.366,0,0,0,.369.27,2.816,2.816,0,0,0,.535.27,2.112,2.112,0,0,0,.767.123,2.018,2.018,0,0,0,.672-.1,1.426,1.426,0,0,0,.5-.292,1.266,1.266,0,0,0,.312-.451,1.506,1.506,0,0,0,.109-.585.981.981,0,0,0-.161-.582,1.335,1.335,0,0,0-.423-.38,2.958,2.958,0,0,0-.6-.259l-.688-.218a6.936,6.936,0,0,1-.688-.259,2.237,2.237,0,0,1-.6-.382,1.756,1.756,0,0,1-.423-.587,2.09,2.09,0,0,1-.161-.871,2.072,2.072,0,0,1,.161-.8,2.068,2.068,0,0,1,.468-.688,2.263,2.263,0,0,1,.756-.481,2.769,2.769,0,0,1,1.035-.18,3.312,3.312,0,0,1,1.2.208,2.753,2.753,0,0,1,.945.6Zm11.452,2.692a4.516,4.516,0,0,1-.279,1.614,3.7,3.7,0,0,1-.786,1.264,3.514,3.514,0,0,1-1.221.822,4.116,4.116,0,0,1-1.576.292,4.1,4.1,0,0,1-1.573-.292,3.521,3.521,0,0,1-1.217-.821,3.7,3.7,0,0,1-.786-1.264,4.518,4.518,0,0,1-.279-1.614,4.518,4.518,0,0,1,.279-1.614,3.725,3.725,0,0,1,.786-1.267A3.534,3.534,0,0,1-299.048-20a4.062,4.062,0,0,1,1.573-.295A4.083,4.083,0,0,1-295.9-20a3.529,3.529,0,0,1,1.221.827,3.725,3.725,0,0,1,.786,1.267,4.518,4.518,0,0,1,.278,1.614Zm-1.087,0a3.978,3.978,0,0,0-.2-1.294,2.738,2.738,0,0,0-.557-.969,2.419,2.419,0,0,0-.874-.609,2.965,2.965,0,0,0-1.147-.213,2.952,2.952,0,0,0-1.141.213,2.443,2.443,0,0,0-.877.609,2.716,2.716,0,0,0-.56.969,3.979,3.979,0,0,0-.2,1.294,3.952,3.952,0,0,0,.2,1.292,2.719,2.719,0,0,0,.56.967,2.414,2.414,0,0,0,.876.606,2.986,2.986,0,0,0,1.141.21,3,3,0,0,0,1.147-.21,2.389,2.389,0,0,0,.874-.606A2.74,2.74,0,0,0-294.9-15a3.953,3.953,0,0,0,.2-1.291Zm9.759-3.916v.863H-288.7V-16.6h3.211v.863H-288.7v3.365h-1.065V-20.2Zm9.093,0v.89h-2.529v6.937h-1.059v-6.936h-2.54v-.89Zm12.037,1.223a.423.423,0,0,1-.1.123.231.231,0,0,1-.142.039.378.378,0,0,1-.216-.093,3.444,3.444,0,0,0-.312-.2,2.527,2.527,0,0,0-.453-.2,1.951,1.951,0,0,0-.642-.093,1.9,1.9,0,0,0-.628.1,1.335,1.335,0,0,0-.456.259,1.065,1.065,0,0,0-.276.385,1.223,1.223,0,0,0-.093.478.884.884,0,0,0,.161.543,1.388,1.388,0,0,0,.426.369,3.262,3.262,0,0,0,.6.265q.336.112.688.234t.688.27a2.419,2.419,0,0,1,.6.38,1.73,1.73,0,0,1,.426.563,1.872,1.872,0,0,1,.161.819,2.643,2.643,0,0,1-.175.964,2.224,2.224,0,0,1-.509.784,2.389,2.389,0,0,1-.825.524A3.033,3.033,0,0,1-266-12.29a3.394,3.394,0,0,1-1.384-.276,3.247,3.247,0,0,1-1.068-.745l.306-.5a.4.4,0,0,1,.106-.1.25.25,0,0,1,.139-.039.435.435,0,0,1,.262.123,4.359,4.359,0,0,0,.369.27,2.815,2.815,0,0,0,.535.27,2.112,2.112,0,0,0,.767.123,2.018,2.018,0,0,0,.671-.107,1.427,1.427,0,0,0,.5-.292,1.266,1.266,0,0,0,.314-.451,1.506,1.506,0,0,0,.109-.585.981.981,0,0,0-.161-.582,1.336,1.336,0,0,0-.423-.38,2.959,2.959,0,0,0-.6-.259l-.688-.218a6.94,6.94,0,0,1-.688-.259,2.236,2.236,0,0,1-.6-.382,1.755,1.755,0,0,1-.423-.587,2.091,2.091,0,0,1-.161-.871,2.073,2.073,0,0,1,.161-.8,2.067,2.067,0,0,1,.468-.688,2.263,2.263,0,0,1,.756-.481,2.77,2.77,0,0,1,1.035-.18,3.312,3.312,0,0,1,1.2.208,2.755,2.755,0,0,1,.945.6Zm11.452,2.692a4.517,4.517,0,0,1-.279,1.614,3.7,3.7,0,0,1-.786,1.264,3.515,3.515,0,0,1-1.221.822,4.116,4.116,0,0,1-1.576.292,4.1,4.1,0,0,1-1.573-.292,3.521,3.521,0,0,1-1.218-.822,3.7,3.7,0,0,1-.786-1.264,4.517,4.517,0,0,1-.279-1.614A4.517,4.517,0,0,1-259.8-17.9a3.725,3.725,0,0,1,.786-1.267A3.534,3.534,0,0,1-257.794-20a4.062,4.062,0,0,1,1.573-.295,4.083,4.083,0,0,1,1.576.295,3.528,3.528,0,0,1,1.221.827,3.725,3.725,0,0,1,.786,1.267,4.518,4.518,0,0,1,.279,1.615Zm-1.087,0a3.979,3.979,0,0,0-.2-1.294,2.738,2.738,0,0,0-.557-.969,2.419,2.419,0,0,0-.874-.609,2.965,2.965,0,0,0-1.147-.213,2.952,2.952,0,0,0-1.141.213,2.443,2.443,0,0,0-.877.609,2.716,2.716,0,0,0-.56.969,3.979,3.979,0,0,0-.2,1.294A3.953,3.953,0,0,0-258.8-15a2.719,2.719,0,0,0,.56.967,2.414,2.414,0,0,0,.877.606,2.985,2.985,0,0,0,1.141.21,3,3,0,0,0,1.147-.21,2.389,2.389,0,0,0,.874-.606,2.741,2.741,0,0,0,.557-.967,3.953,3.953,0,0,0,.2-1.29Zm6,3.02h3.386v.892h-4.447V-20.2h1.059Zm10,.049a2.185,2.185,0,0,0,.868-.164,1.821,1.821,0,0,0,.647-.459,2.006,2.006,0,0,0,.4-.7,2.785,2.785,0,0,0,.139-.9V-20.2h1.053v4.757a3.57,3.57,0,0,1-.216,1.256,2.918,2.918,0,0,1-.617,1,2.822,2.822,0,0,1-.98.663,3.361,3.361,0,0,1-1.3.24,3.361,3.361,0,0,1-1.3-.24,2.85,2.85,0,0,1-.983-.663,2.9,2.9,0,0,1-.62-1,3.569,3.569,0,0,1-.216-1.256V-20.2h1.053v4.751a2.784,2.784,0,0,0,.139.9,2.006,2.006,0,0,0,.4.7,1.845,1.845,0,0,0,.65.461,2.174,2.174,0,0,0,.873.167Zm12.665-6.985v.89h-2.529v6.937h-1.059v-6.936h-2.54v-.89Zm4.773,7.828h-1.06V-20.2h1.06Zm11.77-3.91a4.517,4.517,0,0,1-.279,1.614,3.7,3.7,0,0,1-.786,1.264,3.515,3.515,0,0,1-1.221.822,4.116,4.116,0,0,1-1.576.292,4.1,4.1,0,0,1-1.573-.292,3.521,3.521,0,0,1-1.218-.822,3.7,3.7,0,0,1-.786-1.264,4.517,4.517,0,0,1-.279-1.614,4.517,4.517,0,0,1,.279-1.614,3.725,3.725,0,0,1,.786-1.267A3.534,3.534,0,0,1-213.678-20a4.062,4.062,0,0,1,1.573-.295A4.083,4.083,0,0,1-210.53-20a3.528,3.528,0,0,1,1.221.827,3.725,3.725,0,0,1,.786,1.267A4.517,4.517,0,0,1-208.243-16.287Zm-1.087,0a3.98,3.98,0,0,0-.2-1.294,2.738,2.738,0,0,0-.557-.969,2.419,2.419,0,0,0-.874-.609,2.965,2.965,0,0,0-1.147-.213,2.951,2.951,0,0,0-1.141.213,2.443,2.443,0,0,0-.877.609,2.715,2.715,0,0,0-.56.969,3.979,3.979,0,0,0-.2,1.294,3.952,3.952,0,0,0,.2,1.292,2.719,2.719,0,0,0,.56.967,2.414,2.414,0,0,0,.877.606,2.985,2.985,0,0,0,1.141.21,3,3,0,0,0,1.147-.21,2.389,2.389,0,0,0,.874-.606,2.742,2.742,0,0,0,.557-.967,3.952,3.952,0,0,0,.194-1.292Zm5.483-3.916a.475.475,0,0,1,.21.036.544.544,0,0,1,.156.145l4.533,5.9q-.016-.142-.022-.276t-.005-.259V-20.2h.928v7.826h-.535a.455.455,0,0,1-.21-.044.531.531,0,0,1-.167-.147l-4.528-5.894q.011.137.016.268t.005.24v5.578h-.928V-20.2Zm14.121,1.223a.423.423,0,0,1-.1.123.231.231,0,0,1-.142.039.378.378,0,0,1-.216-.093,3.441,3.441,0,0,0-.312-.2,2.526,2.526,0,0,0-.453-.2,1.95,1.95,0,0,0-.642-.093,1.9,1.9,0,0,0-.628.1,1.335,1.335,0,0,0-.456.259,1.065,1.065,0,0,0-.276.385,1.222,1.222,0,0,0-.093.478.883.883,0,0,0,.161.543,1.388,1.388,0,0,0,.426.369,3.264,3.264,0,0,0,.6.265q.336.112.688.234t.688.27a2.418,2.418,0,0,1,.6.38,1.73,1.73,0,0,1,.428.563,1.873,1.873,0,0,1,.161.819,2.642,2.642,0,0,1-.175.964,2.224,2.224,0,0,1-.511.784,2.389,2.389,0,0,1-.825.524,3.033,3.033,0,0,1-1.111.191,3.394,3.394,0,0,1-1.384-.276,3.247,3.247,0,0,1-1.068-.745l.306-.5a.4.4,0,0,1,.106-.1.25.25,0,0,1,.139-.039.435.435,0,0,1,.262.123,4.367,4.367,0,0,0,.367.268,2.815,2.815,0,0,0,.535.27,2.112,2.112,0,0,0,.767.123,2.018,2.018,0,0,0,.673-.105,1.426,1.426,0,0,0,.5-.292,1.266,1.266,0,0,0,.314-.449,1.506,1.506,0,0,0,.109-.585.981.981,0,0,0-.161-.582,1.336,1.336,0,0,0-.423-.38,2.959,2.959,0,0,0-.6-.259l-.688-.218a6.939,6.939,0,0,1-.688-.259,2.236,2.236,0,0,1-.6-.382,1.755,1.755,0,0,1-.423-.587,2.091,2.091,0,0,1-.161-.871,2.073,2.073,0,0,1,.161-.8,2.068,2.068,0,0,1,.468-.688,2.263,2.263,0,0,1,.756-.481,2.77,2.77,0,0,1,1.035-.18,3.313,3.313,0,0,1,1.2.208,2.755,2.755,0,0,1,.945.6Z" transform="translate(309.823 58.681)" fill="#373935"/></g></g></svg>