<svg width="228" height="204" viewBox="0 0 228 204" fill="none" xmlns="http://www.w3.org/2000/svg">
<g clip-path="url(#clip0_269_38)">
<path fill-rule="evenodd" clip-rule="evenodd" d="M228 101.55C228 86.4463 209.093 72.1406 180.092 63.2529C186.79 33.6953 183.803 10.1865 170.703 2.65332C167.679 0.890625 164.153 0.0556641 160.294 0.0556641V10.4277C162.428 10.4277 164.153 10.8545 165.601 11.6338C171.928 15.252 174.655 29.0566 172.521 46.8135C172.002 51.1738 171.167 55.7754 170.146 60.4697C161.036 58.2432 151.091 56.5176 140.645 55.4043C134.373 46.8135 127.86 39.002 121.311 32.1738C136.451 18.0723 150.664 10.3721 160.331 10.3721V0C147.547 0 130.829 9.11035 113.907 24.9189C96.9854 9.20313 80.2676 0.185547 67.4834 0.185547V10.5576C77.0947 10.5576 91.3633 18.2207 106.522 32.2109C100.01 39.0391 93.5156 46.7949 87.3369 55.4043C76.835 56.5176 66.8896 58.2432 57.7793 60.5068C56.7031 55.8682 55.9238 51.3594 55.3672 47.0361C53.1777 29.2793 55.8867 15.4746 62.1582 11.8008C63.5498 10.9658 65.3682 10.5947 67.502 10.5947V0.241211C63.6055 0.241211 60.0615 1.07617 57 2.83887C43.9375 10.3721 41.0059 33.8437 47.7598 63.3086C18.8145 72.2148 0 86.4834 0 101.55C0 116.653 18.9072 130.959 47.9082 139.847C41.21 169.404 44.1973 192.913 57.2969 200.446C60.3213 202.209 63.8467 203.044 67.7617 203.044C80.5459 203.044 97.2637 193.934 114.186 178.125C131.107 193.841 147.825 202.858 160.609 202.858C164.506 202.858 168.05 202.023 171.111 200.261C184.174 192.728 187.105 169.256 180.352 139.791C209.186 130.922 228 116.598 228 101.55ZM135.189 101.55C135.189 89.8232 125.689 80.3047 113.944 80.3047C102.218 80.3047 92.6992 89.8047 92.6992 101.55C92.6992 113.295 102.199 122.795 113.944 122.795C125.689 122.776 135.189 113.276 135.189 101.55ZM167.493 70.5449C165.768 76.5381 163.634 82.7168 161.222 88.8955C159.311 85.1846 157.325 81.4551 155.136 77.7441C153.002 74.0332 150.72 70.3965 148.438 66.8711C155.043 67.8545 161.407 69.0605 167.493 70.5449ZM146.211 120.049C142.593 126.32 138.863 132.276 135.004 137.806C128.083 138.418 121.069 138.733 114 138.733C106.986 138.733 99.9727 138.399 93.0889 137.843C89.2295 132.313 85.4629 126.413 81.8447 120.179C78.3193 114.093 75.1094 107.914 72.1777 101.68C75.0537 95.4453 78.3193 89.2295 81.7891 83.1436C85.4072 76.8721 89.1367 70.916 92.9961 65.3867C99.917 64.7744 106.931 64.459 114 64.459C121.014 64.459 128.027 64.793 134.911 65.3496C138.771 70.8789 142.537 76.7793 146.155 83.0137C149.681 89.0996 152.891 95.2783 155.822 101.513C152.891 107.729 149.699 113.944 146.211 120.049ZM161.222 114C163.727 120.234 165.86 126.45 167.642 132.499C161.556 133.983 155.136 135.245 148.493 136.21C150.775 132.629 153.039 128.955 155.191 125.188C157.307 121.478 159.311 117.711 161.222 114ZM114.093 163.578C109.77 159.125 105.446 154.152 101.179 148.716C105.354 148.901 109.64 149.05 113.963 149.05C118.323 149.05 122.646 148.957 126.877 148.716C122.684 154.152 118.36 159.125 114.093 163.578ZM79.5254 136.21C72.9199 135.227 66.5557 134.021 60.4697 132.536C62.1953 126.543 64.3291 120.364 66.7412 114.186C68.6523 117.896 70.6377 121.626 72.8271 125.337C75.0166 129.066 77.2432 132.685 79.5254 136.21ZM113.852 39.5029C118.175 43.9561 122.498 48.9287 126.766 54.3652C122.591 54.1797 118.305 54.0313 113.981 54.0313C109.621 54.0313 105.298 54.124 101.067 54.3652C105.261 48.9287 109.584 43.9561 113.852 39.5029ZM79.4697 66.8711C77.1875 70.4522 74.9238 74.126 72.7715 77.8926C70.6377 81.6035 68.6338 85.333 66.7227 89.0439C64.2178 82.8096 62.084 76.5938 60.3027 70.5449C66.4072 69.0977 72.8272 67.8545 79.4697 66.8711ZM37.4062 125.059C20.9482 118.045 10.3164 108.842 10.3164 101.55C10.3164 94.2578 20.9668 84.999 37.4062 78.041C41.3955 76.3154 45.7744 74.7939 50.2832 73.3467C52.9365 82.457 56.4248 91.9385 60.748 101.643C56.4805 111.31 53.0293 120.735 50.4316 129.809C45.8301 128.361 41.4512 126.784 37.4062 125.059ZM62.418 191.466C56.0908 187.848 53.3633 174.043 55.4971 156.286C56.0166 151.926 56.8516 147.324 57.8721 142.63C66.9824 144.856 76.9277 146.582 87.374 147.695C93.6455 156.286 100.158 164.098 106.708 170.926C91.5488 185.009 77.3359 192.728 67.6689 192.728C65.5723 192.672 63.8096 192.264 62.418 191.466ZM172.651 156.063C174.841 173.82 172.132 187.625 165.86 191.299C164.469 192.134 162.65 192.505 160.517 192.505C150.905 192.505 136.637 184.842 121.478 170.852C127.99 164.023 134.484 156.268 140.663 147.658C151.165 146.545 161.11 144.819 170.221 142.537C171.297 147.231 172.132 151.74 172.651 156.063ZM190.538 125.059C186.549 126.784 182.17 128.306 177.661 129.753C175.008 120.643 171.52 111.161 167.196 101.457C171.464 91.79 174.915 82.3643 177.513 73.291C182.114 74.7383 186.475 76.3154 190.575 78.0225C207.033 85.0361 217.665 94.2393 217.665 101.531C217.628 108.842 206.996 118.082 190.538 125.059Z" fill="#00D8FF"/>
</g>
<defs>
<clipPath id="clip0_269_38">
<rect width="228" height="203.044" fill="white"/>
</clipPath>
</defs>
</svg>
