<svg width="228" height="228" viewBox="0 0 228 228" fill="none" xmlns="http://www.w3.org/2000/svg">
<g clip-path="url(#clip0_300_570)">
<path fill-rule="evenodd" clip-rule="evenodd" d="M154.501 153.678C162.251 152.874 168.13 146.171 167.862 138.128C167.596 130.086 160.914 123.651 152.898 123.651H152.364C144.079 123.919 137.666 130.89 137.934 139.201C138.201 143.222 139.804 146.708 142.209 149.12C133.123 167.083 119.228 180.22 98.3848 191.212C84.2217 198.719 69.5251 201.4 54.8279 199.523C42.8024 197.914 33.4498 192.553 27.5697 183.705C19.0191 170.568 18.2177 156.359 25.4328 142.15C30.5104 131.962 38.5261 124.455 43.6037 120.702C42.5353 117.216 40.9314 111.319 40.13 107.03C1.38238 135.18 5.39152 173.249 17.1487 191.212C25.967 204.617 43.8708 212.928 63.645 212.928C68.989 212.928 74.3331 212.392 79.6778 211.052C113.883 204.349 139.804 183.973 154.5 153.678H154.501ZM201.533 120.435C181.223 96.5736 151.295 83.4372 117.09 83.4372H112.815C110.41 78.6118 105.332 75.3936 99.7209 75.3936H99.1861C90.9032 75.6616 84.4901 82.632 84.7566 90.9436C85.0237 98.9859 91.7039 105.42 99.7209 105.42H100.255C106.134 105.152 111.212 101.399 113.349 96.3049H118.159C138.468 96.3049 157.708 102.203 175.078 113.731C188.439 122.579 198.059 134.107 203.403 148.048C207.946 159.308 207.679 170.3 202.868 179.684C195.387 193.893 182.827 201.668 166.259 201.668C155.57 201.668 145.416 198.45 140.071 196.037C137.132 198.718 131.787 203.007 128.046 205.689C139.538 211.05 151.295 214 162.518 214C188.172 214 207.145 199.79 214.36 185.582C222.109 170.032 221.574 143.222 201.533 120.435H201.533ZM65.7837 158.235C66.0508 166.278 72.7317 172.712 80.7481 172.712H81.2829C89.567 172.445 95.9802 165.474 95.7124 157.163C95.4459 149.12 88.7645 142.686 80.7481 142.686H80.2139C79.679 142.686 78.8771 142.686 78.3435 142.953C67.387 124.723 62.8443 104.885 64.4482 83.4366C65.516 67.3506 70.8613 53.4097 80.2139 41.8812C87.9631 31.9618 102.927 27.1357 113.082 26.8684C141.407 26.3318 153.432 61.72 154.234 75.9302C157.708 76.7341 163.586 78.6112 167.595 79.9517C164.388 36.5205 137.666 14 112.014 14C87.9631 14 65.7837 31.4265 56.9648 57.1638C44.6728 91.4802 52.6898 124.455 67.6541 150.461C66.3186 152.338 65.5166 155.287 65.7837 158.236V158.236V158.235Z" fill="#764ABC"/>
</g>
<defs>
<clipPath id="clip0_300_570">
<rect width="210" height="200" fill="white" transform="translate(9 14)"/>
</clipPath>
</defs>
</svg>
